<svg viewBox="0 0 1080 1080" fill="none" xmlns="http://www.w3.org/2000/svg">      <defs>  <filter id="filter" x="-20%" y="-20%" width="140%" height="140%" filterUnits="objectBoundingBox" primitiveUnits="userSpaceOnUse" color-interpolation-filters="linearRGB">    <feMorphology operator="dilate" radius="20 20" in="SourceAlpha" result="morphology"/>    <feFlood flood-color="#ffffff" flood-opacity="1" result="flood"/>    <feComposite in="flood" in2="morphology" operator="in" result="composite"/>    <feMerge result="merge">          <feMergeNode in="composite" result="mergeNode"/>      <feMergeNode in="SourceGraphic" result="mergeNode1"/>      </feMerge>  </filter></defs>      <g id="notion-avatar" filter="url(#filter)">        <g id="notion-avatar-face" fill="#ffffff" transform="scale(-1,1) translate(-1080, 0)">      <!--?xml version="1.0" encoding="UTF-8"?-->    <title>Face/ 8</title>    <g id="Face/-8" stroke="none" stroke-width="1" fill-rule="evenodd" stroke-linecap="round" stroke-linejoin="round">        <path d="M532,379 C664.54834,379 772,486.45166 772,619 C772,751.54834 724.54834,899 592,899 C492.560218,899 373.476049,816.010833 320.189513,718.584987 C317.498129,718.859681 314.765451,719 312,719 C267.81722,719 232,683.18278 232,639 C232,599.134956 261.158843,566.080325 299.312086,560.00055 C325.599297,455.979213 419.809919,379 532,379 Z M295.858895,624.545187 L304.141105,655.454813" id="Path" stroke="#000000" stroke-width="24"/>    </g>    </g><g id="notion-avatar-nose" transform="scale(-1,1) translate(-1080, 0)">      <!--?xml version="1.0" encoding="UTF-8"?-->    <title>Nose/ 8</title>    <g id="Nose/-8" stroke="none" stroke-width="1" fill="none" fill-rule="evenodd" stroke-linecap="round" stroke-linejoin="round">        <path d="M649,600 C682.333333,613.333333 699,630 699,650 C699,670 682.333333,680 649,680" id="Path" stroke="#000000" stroke-width="16"/>    </g>    </g><g id="notion-avatar-mouth" transform="scale(-1,1) translate(-1080, 0)">      <!--?xml version="1.0" encoding="UTF-8"?-->    <title>Mouth/ 10</title>    <g id="Mouth/-10" stroke="none" stroke-width="1" fill="none" fill-rule="evenodd" stroke-linecap="round" stroke-linejoin="round">        <path d="M549,759 C576.33038,765.666667 599.663714,769 619,769 C638.336286,769 655.002953,765.666667 669,759 C656.33038,792.333333 632.997047,809 599,809 C565.002953,809 548.336286,792.333333 549,759 Z" id="Path" stroke="#000000" stroke-width="16"/>    </g>    </g><g id="notion-avatar-eyes" transform="scale(-1,1) translate(-1080, 0)">      <!--?xml version="1.0" encoding="UTF-8"?-->    <title>Eyes/ 9</title>    <g id="Eyes/-9" stroke="none" stroke-width="1" fill="none" fill-rule="evenodd">        <path d="M570,507 C575.854822,507 581.122051,511.025253 584.779642,517.440484 L578,531 L589.369946,531.000208 C589.781247,533.557105 590,536.237678 590,539 C590,556.673112 581.045695,571 570,571 C558.954305,571 550,556.673112 550,539 C550,521.326888 558.954305,507 570,507 Z M708,507 C713.854822,507 719.122051,511.025253 722.779642,517.440484 L716,531 L727.369946,531.000208 C727.781247,533.557105 728,536.237678 728,539 C728,556.673112 719.045695,571 708,571 C696.954305,571 688,556.673112 688,539 C688,521.326888 696.954305,507 708,507 Z" id="Combined-Shape" fill="#000000"/>    </g>    </g><g id="notion-avatar-eyebrows" transform="scale(-1,1) translate(-1080, 0)">      <!--?xml version="1.0" encoding="UTF-8"?-->    <title>Eyebrows/ 5</title>    <g id="Eyebrows/-5" stroke="none" stroke-width="1" fill="none" fill-rule="evenodd" stroke-linecap="round" stroke-linejoin="round">        <g id="Group" transform="translate(517.000000, 471.000000)" stroke="#000000" stroke-width="24">            <line x1="1" y1="27.4172651" x2="76.8548788" y2="2" id="Path" transform="translate(38.927439, 14.708633) rotate(2.524843) translate(-38.927439, -14.708633) "/>            <line x1="166" y1="27.4172651" x2="241.854879" y2="2" id="Path" transform="translate(203.927439, 14.708633) scale(-1, 1) rotate(2.524843) translate(-203.927439, -14.708633) "/>        </g>    </g>    </g><g id="notion-avatar-glasses" transform="scale(-1,1) translate(-1080, 0)">      <g id="Glasses/ 11"><g id="Group"><path id="Path" fill-rule="evenodd" clip-rule="evenodd" d="M481 508L293 541L289 550L481 521V508Z" fill="black" stroke="black" stroke-width="4" stroke-linecap="round" stroke-linejoin="round"/><g id="Combined Shape"><path fill-rule="evenodd" clip-rule="evenodd" d="M474 506.65L507.276 500.835C507.276 500.835 526.938 483 559.08 483C591.221 483 624.497 512.466 624.497 512.466H640H655.503C655.503 512.466 688.779 483 720.92 483C753.061 483 772.724 500.835 772.724 500.835L806 506.65V525.26L794.656 531.076C794.656 531.076 790.875 593.497 768.187 612.107C745.499 630.717 709.88 630.544 684.241 612.107C658.603 593.671 650.588 531.076 650.588 531.076H640H629.412C629.412 531.076 621.397 593.671 595.759 612.107C570.12 630.544 534.501 630.717 511.813 612.107C489.125 593.497 485.344 531.076 485.344 531.076L474 525.26V506.65ZM507.685 512.117C504.389 514.911 502.191 517.487 501.219 519.374C500.749 520.285 500.131 522.488 499.556 525.707C498.986 528.903 498.468 533.045 498.178 537.791C497.598 547.287 497.931 559.179 500.56 570.745C503.189 582.313 508.107 593.517 516.669 601.686C525.217 609.843 537.443 615.018 554.787 614.459L554.791 614.459C571.028 614.086 583.045 608.636 591.886 600.564C600.736 592.483 606.431 581.748 609.964 570.769C613.497 559.792 614.859 548.598 615.061 539.633C615.162 535.151 614.973 531.233 614.622 528.186C614.447 526.661 614.232 525.36 613.994 524.318C613.754 523.266 613.498 522.508 613.253 522.051C608.888 513.917 593.331 495.684 561.12 494.551C545.01 493.984 531.02 498.259 520.553 503.656C515.319 506.355 510.972 509.331 507.685 512.117ZM520.095 502.767C530.688 497.305 544.847 492.977 561.155 493.551C593.778 494.699 609.629 513.183 614.134 521.578C614.443 522.155 614.723 523.016 614.969 524.095C615.217 525.183 615.438 526.522 615.616 528.071C615.972 531.171 616.163 535.135 616.061 539.655C615.857 548.695 614.484 559.988 610.916 571.076C607.348 582.162 601.577 593.069 592.56 601.302C583.535 609.543 571.284 615.079 554.817 615.458C537.239 616.025 524.743 610.773 515.978 602.41C507.226 594.058 502.24 582.647 499.585 570.966C496.929 559.283 496.596 547.291 497.18 537.73C497.472 532.949 497.994 528.769 498.572 525.532C499.145 522.318 499.783 519.977 500.33 518.916C501.39 516.859 503.701 514.183 507.039 511.354C510.386 508.517 514.798 505.499 520.095 502.767ZM772.315 512.117C775.611 514.911 777.809 517.487 778.781 519.374C779.251 520.285 779.869 522.488 780.444 525.707C781.014 528.903 781.532 533.045 781.822 537.791C782.402 547.287 782.069 559.179 779.44 570.745C776.811 582.313 771.893 593.517 763.331 601.686C754.783 609.843 742.557 615.018 725.213 614.459L725.209 614.459C708.972 614.086 696.955 608.636 688.114 600.564C679.264 592.483 673.569 581.748 670.036 570.769C666.503 559.792 665.141 548.598 664.939 539.633C664.838 535.151 665.027 531.233 665.378 528.186C665.553 526.661 665.768 525.36 666.006 524.318C666.246 523.266 666.502 522.508 666.747 522.051C671.112 513.917 686.669 495.684 718.88 494.551C734.99 493.984 748.98 498.259 759.447 503.656C764.681 506.355 769.028 509.331 772.315 512.117ZM759.905 502.767C749.312 497.305 735.153 492.977 718.845 493.551C686.222 494.699 670.371 513.183 665.866 521.578C665.557 522.155 665.277 523.016 665.031 524.095C664.783 525.183 664.562 526.522 664.384 528.071C664.028 531.171 663.837 535.135 663.939 539.655C664.143 548.695 665.516 559.988 669.084 571.076C672.652 582.162 678.423 593.069 687.44 601.302C696.465 609.543 708.716 615.079 725.183 615.458C742.761 616.025 755.257 610.773 764.022 602.41C772.774 594.058 777.76 582.647 780.415 570.966C783.071 559.283 783.404 547.291 782.82 537.73C782.528 532.949 782.006 528.769 781.428 525.532C780.855 522.318 780.217 519.977 779.67 518.916C778.61 516.859 776.299 514.183 772.961 511.354C769.614 508.517 765.202 505.499 759.905 502.767Z" fill="black"/><path d="M507.276 500.835L507.62 502.805C507.993 502.74 508.339 502.57 508.619 502.316L507.276 500.835ZM474 506.65L473.656 504.68C472.698 504.847 472 505.679 472 506.65H474ZM624.497 512.466L623.171 513.963C623.536 514.287 624.008 514.466 624.497 514.466V512.466ZM655.503 512.466V514.466C655.992 514.466 656.464 514.287 656.829 513.963L655.503 512.466ZM772.724 500.835L771.381 502.316C771.661 502.57 772.007 502.74 772.38 502.805L772.724 500.835ZM806 506.65H808C808 505.679 807.302 504.847 806.344 504.68L806 506.65ZM806 525.26L806.912 527.04C807.58 526.698 808 526.011 808 525.26H806ZM794.656 531.076L793.744 529.296C793.115 529.619 792.702 530.249 792.66 530.955L794.656 531.076ZM684.241 612.107L685.409 610.484L684.241 612.107ZM650.588 531.076L652.571 530.822C652.444 529.824 651.594 529.076 650.588 529.076V531.076ZM629.412 531.076V529.076C628.406 529.076 627.556 529.824 627.429 530.822L629.412 531.076ZM595.759 612.107L594.591 610.484L595.759 612.107ZM485.344 531.076L487.34 530.955C487.298 530.249 486.885 529.619 486.256 529.296L485.344 531.076ZM474 525.26H472C472 526.011 472.42 526.698 473.088 527.04L474 525.26ZM501.219 519.374L502.997 520.29L501.219 519.374ZM507.685 512.117L506.392 510.591L507.685 512.117ZM499.556 525.707L501.525 526.059L501.525 526.059L499.556 525.707ZM498.178 537.791L500.175 537.913L498.178 537.791ZM500.56 570.745L502.51 570.301L500.56 570.745ZM516.669 601.686L518.049 600.239H518.049L516.669 601.686ZM554.787 614.459L554.734 612.459L554.722 612.46L554.787 614.459ZM554.791 614.459L554.745 612.459L554.739 612.459L554.791 614.459ZM591.886 600.564L590.537 599.087L591.886 600.564ZM609.964 570.769L611.868 571.382L609.964 570.769ZM615.061 539.633L613.062 539.588V539.588L615.061 539.633ZM614.622 528.186L616.609 527.957V527.957L614.622 528.186ZM613.994 524.318L615.944 523.873L613.994 524.318ZM613.253 522.051L611.491 522.997V522.997L613.253 522.051ZM561.12 494.551L561.19 492.552L561.12 494.551ZM520.553 503.656L521.469 505.434L520.553 503.656ZM561.155 493.551L561.085 495.55L561.155 493.551ZM520.095 502.767L519.178 500.99L520.095 502.767ZM614.134 521.578L612.372 522.524L612.372 522.524L614.134 521.578ZM614.969 524.095L613.019 524.54L613.019 524.54L614.969 524.095ZM615.616 528.071L613.629 528.3V528.3L615.616 528.071ZM616.061 539.655L614.061 539.61L616.061 539.655ZM610.916 571.076L609.012 570.463L610.916 571.076ZM592.56 601.302L591.212 599.825H591.212L592.56 601.302ZM554.817 615.458L554.771 613.459C554.764 613.459 554.758 613.459 554.752 613.459L554.817 615.458ZM515.978 602.41L517.359 600.963L515.978 602.41ZM499.585 570.966L501.535 570.523L499.585 570.966ZM497.18 537.73L495.184 537.609V537.609L497.18 537.73ZM498.572 525.532L496.603 525.18L498.572 525.532ZM500.33 518.916L502.108 519.832L500.33 518.916ZM507.039 511.354L505.746 509.828L507.039 511.354ZM778.781 519.374L780.559 518.458V518.458L778.781 519.374ZM772.315 512.117L773.608 510.591V510.591L772.315 512.117ZM780.444 525.707L782.413 525.356V525.356L780.444 525.707ZM781.822 537.791L783.818 537.67V537.669L781.822 537.791ZM779.44 570.745L781.39 571.188V571.188L779.44 570.745ZM763.331 601.686L761.951 600.239L763.331 601.686ZM725.213 614.459L725.278 612.46L725.266 612.459L725.213 614.459ZM725.209 614.459L725.261 612.459L725.255 612.459L725.209 614.459ZM688.114 600.564L689.463 599.087L688.114 600.564ZM670.036 570.769L668.132 571.382L670.036 570.769ZM664.939 539.633L666.938 539.588V539.588L664.939 539.633ZM665.378 528.186L663.391 527.957V527.957L665.378 528.186ZM666.006 524.318L664.056 523.873L666.006 524.318ZM666.747 522.051L668.509 522.997V522.997L666.747 522.051ZM718.88 494.551L718.81 492.552L718.88 494.551ZM759.447 503.656L758.531 505.434V505.434L759.447 503.656ZM718.845 493.551L718.915 495.55L718.845 493.551ZM759.905 502.767L760.822 500.99V500.99L759.905 502.767ZM665.866 521.578L667.628 522.524L667.628 522.524L665.866 521.578ZM665.031 524.095L666.981 524.54L666.981 524.54L665.031 524.095ZM664.384 528.071L666.371 528.3V528.3L664.384 528.071ZM663.939 539.655L665.939 539.61L663.939 539.655ZM669.084 571.076L670.988 570.463L669.084 571.076ZM687.44 601.302L686.091 602.779L687.44 601.302ZM725.183 615.458L725.248 613.459C725.242 613.459 725.236 613.459 725.229 613.459L725.183 615.458ZM764.022 602.41L765.402 603.857L764.022 602.41ZM780.415 570.966L778.465 570.523L780.415 570.966ZM782.82 537.73L784.816 537.609V537.609L782.82 537.73ZM781.428 525.532L779.459 525.883V525.883L781.428 525.532ZM779.67 518.916L781.448 518V518L779.67 518.916ZM772.961 511.354L774.254 509.828L774.254 509.828L772.961 511.354ZM506.931 498.865L473.656 504.68L474.344 508.62L507.62 502.805L506.931 498.865ZM559.08 481C542.633 481 529.376 485.564 520.232 490.128C515.659 492.41 512.107 494.696 509.689 496.419C508.48 497.281 507.553 498.004 506.922 498.516C506.607 498.772 506.366 498.976 506.2 499.118C506.117 499.189 506.053 499.245 506.009 499.285C505.986 499.305 505.969 499.32 505.956 499.332C505.949 499.337 505.944 499.342 505.94 499.346C505.938 499.348 505.937 499.349 505.935 499.35C505.935 499.351 505.934 499.352 505.933 499.352C505.933 499.353 505.932 499.353 507.276 500.835C508.619 502.316 508.619 502.317 508.618 502.317C508.618 502.317 508.618 502.317 508.618 502.317C508.618 502.318 508.618 502.317 508.618 502.317C508.619 502.316 508.621 502.315 508.624 502.312C508.631 502.306 508.642 502.296 508.657 502.282C508.689 502.254 508.739 502.21 508.809 502.151C508.947 502.032 509.159 501.852 509.444 501.621C510.014 501.158 510.875 500.487 512.011 499.677C514.284 498.056 517.657 495.883 522.018 493.707C530.74 489.354 543.385 485 559.08 485V481ZM624.497 512.466C625.822 510.969 625.822 510.968 625.821 510.968C625.821 510.967 625.82 510.967 625.82 510.966C625.818 510.965 625.816 510.963 625.814 510.961C625.809 510.956 625.802 510.95 625.793 510.942C625.775 510.926 625.748 510.904 625.715 510.874C625.647 510.815 625.547 510.729 625.417 510.617C625.157 510.394 624.775 510.07 624.28 509.66C623.289 508.839 621.842 507.671 620.008 506.272C616.341 503.475 611.114 499.746 604.866 496.016C592.431 488.59 575.696 481 559.08 481V485C574.605 485 590.578 492.143 602.816 499.45C608.905 503.086 614.005 506.724 617.582 509.452C619.37 510.815 620.774 511.95 621.728 512.74C622.205 513.135 622.57 513.444 622.813 513.653C622.934 513.757 623.026 513.837 623.086 513.889C623.116 513.915 623.138 513.934 623.152 513.947C623.159 513.953 623.164 513.958 623.167 513.96C623.169 513.962 623.17 513.963 623.171 513.963C623.171 513.963 623.171 513.963 623.171 513.964C623.171 513.963 623.171 513.963 624.497 512.466ZM640 510.466H624.497V514.466H640V510.466ZM640 514.466H655.503V510.466H640V514.466ZM655.503 512.466C656.829 513.963 656.829 513.963 656.829 513.964C656.829 513.963 656.829 513.963 656.829 513.963C656.83 513.963 656.831 513.962 656.833 513.96C656.836 513.958 656.841 513.953 656.848 513.947C656.862 513.934 656.884 513.915 656.914 513.889C656.974 513.837 657.066 513.757 657.187 513.653C657.43 513.444 657.795 513.135 658.272 512.74C659.226 511.95 660.63 510.815 662.418 509.452C665.995 506.724 671.095 503.086 677.184 499.45C689.422 492.143 705.395 485 720.92 485V481C704.304 481 687.569 488.59 675.134 496.016C668.886 499.746 663.659 503.475 659.992 506.272C658.158 507.671 656.711 508.839 655.72 509.66C655.225 510.07 654.843 510.394 654.583 510.617C654.453 510.729 654.353 510.815 654.285 510.874C654.252 510.904 654.225 510.926 654.207 510.942C654.198 510.95 654.191 510.956 654.186 510.961C654.184 510.963 654.182 510.965 654.18 510.966C654.18 510.967 654.179 510.967 654.179 510.968C654.178 510.968 654.178 510.969 655.503 512.466ZM720.92 485C736.615 485 749.26 489.354 757.982 493.707C762.343 495.883 765.716 498.056 767.989 499.677C769.125 500.487 769.986 501.158 770.556 501.621C770.841 501.852 771.053 502.032 771.191 502.151C771.261 502.21 771.311 502.254 771.343 502.282C771.358 502.296 771.369 502.306 771.376 502.312C771.379 502.315 771.381 502.316 771.382 502.317C771.382 502.317 771.382 502.318 771.382 502.317C771.382 502.317 771.382 502.317 771.382 502.317C771.381 502.317 771.381 502.316 772.724 500.835C774.068 499.353 774.067 499.353 774.067 499.352C774.066 499.352 774.065 499.351 774.065 499.35C774.063 499.349 774.062 499.348 774.06 499.346C774.056 499.342 774.051 499.337 774.044 499.332C774.031 499.32 774.014 499.305 773.991 499.285C773.947 499.245 773.883 499.189 773.8 499.118C773.634 498.976 773.393 498.772 773.078 498.516C772.447 498.004 771.52 497.281 770.311 496.419C767.893 494.696 764.341 492.41 759.768 490.128C750.624 485.564 737.367 481 720.92 481V485ZM772.38 502.805L805.656 508.62L806.344 504.68L773.069 498.865L772.38 502.805ZM804 506.65V525.26H808V506.65H804ZM805.088 523.481L793.744 529.296L795.568 532.856L806.912 527.04L805.088 523.481ZM794.656 531.076C792.66 530.955 792.66 530.955 792.66 530.955C792.66 530.955 792.66 530.956 792.66 530.957C792.66 530.958 792.659 530.96 792.659 530.964C792.659 530.97 792.658 530.981 792.657 530.995C792.655 531.023 792.653 531.066 792.649 531.124C792.641 531.239 792.63 531.411 792.613 531.638C792.581 532.092 792.529 532.763 792.456 533.626C792.31 535.351 792.076 537.842 791.724 540.891C791.02 546.992 789.847 555.312 787.972 564.2C786.096 573.097 783.528 582.512 780.049 590.823C776.556 599.168 772.222 606.21 766.918 610.561L769.455 613.654C775.495 608.699 780.142 600.96 783.739 592.367C787.35 583.74 789.981 574.06 791.886 565.026C793.793 555.982 794.984 547.534 795.698 541.349C796.055 538.256 796.293 535.724 796.442 533.963C796.517 533.083 796.569 532.395 796.603 531.925C796.62 531.69 796.632 531.51 796.64 531.388C796.644 531.326 796.647 531.28 796.649 531.248C796.65 531.232 796.651 531.22 796.652 531.211C796.652 531.207 796.652 531.204 796.652 531.201C796.652 531.2 796.652 531.199 796.652 531.198C796.652 531.198 796.652 531.197 794.656 531.076ZM766.918 610.561C745.016 628.527 710.404 628.458 685.409 610.484L683.074 613.731C709.355 632.63 745.982 632.908 769.455 613.654L766.918 610.561ZM685.409 610.484C679.366 606.138 674.236 599.085 669.945 590.753C665.668 582.446 662.305 573.026 659.721 564.121C657.14 555.223 655.35 546.889 654.207 540.777C653.635 537.722 653.225 535.226 652.959 533.497C652.826 532.633 652.728 531.96 652.665 531.506C652.633 531.278 652.609 531.105 652.594 530.99C652.586 530.933 652.58 530.89 652.577 530.862C652.575 530.848 652.573 530.837 652.573 530.831C652.572 530.827 652.572 530.825 652.572 530.823C652.572 530.823 652.572 530.822 652.571 530.822C652.571 530.822 652.571 530.822 650.588 531.076C648.604 531.33 648.604 531.331 648.604 531.331C648.604 531.332 648.604 531.333 648.604 531.334C648.605 531.337 648.605 531.34 648.606 531.344C648.607 531.353 648.608 531.365 648.611 531.381C648.615 531.413 648.621 531.46 648.629 531.522C648.646 531.645 648.67 531.826 648.703 532.061C648.77 532.533 648.869 533.223 649.006 534.106C649.278 535.872 649.694 538.411 650.275 541.512C651.435 547.713 653.252 556.179 655.879 565.235C658.504 574.283 661.952 583.968 666.389 592.584C670.812 601.174 676.298 608.858 683.074 613.731L685.409 610.484ZM650.588 529.076H640V533.076H650.588V529.076ZM629.412 533.076H640V529.076H629.412V533.076ZM596.926 613.731C603.702 608.858 609.188 601.174 613.611 592.584C618.048 583.968 621.496 574.283 624.121 565.235C626.748 556.179 628.565 547.713 629.725 541.512C630.306 538.411 630.722 535.872 630.994 534.106C631.131 533.223 631.23 532.533 631.297 532.061C631.33 531.826 631.354 531.645 631.371 531.522C631.379 531.46 631.385 531.413 631.389 531.381C631.392 531.365 631.393 531.353 631.394 531.344C631.395 531.34 631.395 531.337 631.396 531.334C631.396 531.333 631.396 531.332 631.396 531.331C631.396 531.331 631.396 531.33 629.412 531.076C627.429 530.822 627.429 530.822 627.429 530.822C627.428 530.822 627.428 530.823 627.428 530.823C627.428 530.825 627.428 530.827 627.427 530.831C627.427 530.837 627.425 530.848 627.423 530.862C627.42 530.89 627.414 530.933 627.406 530.99C627.391 531.105 627.367 531.278 627.335 531.506C627.272 531.96 627.174 532.633 627.041 533.497C626.775 535.226 626.365 537.722 625.793 540.777C624.65 546.889 622.86 555.223 620.279 564.121C617.695 573.026 614.332 582.446 610.055 590.753C605.764 599.085 600.634 606.138 594.591 610.484L596.926 613.731ZM510.545 613.654C534.018 632.908 570.645 632.63 596.926 613.731L594.591 610.484C569.596 628.458 534.984 628.527 513.082 610.561L510.545 613.654ZM485.344 531.076C483.348 531.197 483.348 531.198 483.348 531.198C483.348 531.199 483.348 531.2 483.348 531.201C483.348 531.204 483.348 531.207 483.348 531.211C483.349 531.22 483.35 531.232 483.351 531.248C483.353 531.28 483.356 531.326 483.36 531.388C483.368 531.51 483.38 531.69 483.397 531.925C483.431 532.395 483.483 533.083 483.558 533.963C483.707 535.724 483.945 538.256 484.302 541.349C485.016 547.534 486.207 555.982 488.114 565.026C490.019 574.06 492.65 583.74 496.261 592.367C499.858 600.96 504.505 608.699 510.545 613.654L513.082 610.561C507.778 606.21 503.444 599.168 499.951 590.823C496.472 582.512 493.904 573.097 492.028 564.2C490.153 555.312 488.98 546.992 488.276 540.891C487.924 537.842 487.69 535.351 487.544 533.626C487.471 532.763 487.419 532.092 487.387 531.638C487.37 531.411 487.359 531.239 487.351 531.124C487.347 531.066 487.345 531.023 487.343 530.995C487.342 530.981 487.341 530.97 487.341 530.964C487.341 530.96 487.34 530.958 487.34 530.957C487.34 530.956 487.34 530.955 487.34 530.955C487.34 530.955 487.34 530.955 485.344 531.076ZM473.088 527.04L484.432 532.856L486.256 529.296L474.912 523.481L473.088 527.04ZM472 506.65V525.26H476V506.65H472ZM502.997 520.29C503.794 518.742 505.764 516.367 508.979 513.642L506.392 510.591C503.014 513.454 500.588 516.231 499.441 518.458L502.997 520.29ZM501.525 526.059C502.102 522.826 502.682 520.901 502.997 520.29L499.441 518.458C498.817 519.669 498.159 522.149 497.587 525.356L501.525 526.059ZM500.175 537.913C500.46 533.237 500.969 529.172 501.525 526.059L497.587 525.356C497.002 528.634 496.476 532.853 496.182 537.67L500.175 537.913ZM502.51 570.301C499.935 558.972 499.603 547.28 500.175 537.913L496.182 537.67C495.594 547.295 495.927 559.386 498.61 571.188L502.51 570.301ZM518.049 600.239C509.871 592.435 505.088 581.644 502.51 570.301L498.61 571.188C501.29 582.981 506.344 594.599 515.288 603.133L518.049 600.239ZM554.722 612.46C537.848 613.004 526.164 607.982 518.049 600.239L515.288 603.133C524.27 611.704 537.038 617.033 554.851 616.458L554.722 612.46ZM554.739 612.459L554.734 612.459L554.839 616.458L554.844 616.458L554.739 612.459ZM590.537 599.087C582.066 606.822 570.517 612.097 554.745 612.459L554.837 616.458C571.539 616.074 584.024 610.451 593.234 602.041L590.537 599.087ZM608.06 570.157C604.597 580.918 599.054 591.311 590.537 599.087L593.234 602.041C602.418 593.655 608.265 582.577 611.868 571.382L608.06 570.157ZM613.062 539.588C612.863 548.404 611.522 559.401 608.06 570.157L611.868 571.382C615.472 560.184 616.855 548.792 617.061 539.678L613.062 539.588ZM612.635 528.414C612.974 531.358 613.161 535.183 613.062 539.588L617.061 539.678C617.163 535.119 616.972 531.109 616.609 527.957L612.635 528.414ZM612.044 524.762C612.261 525.715 612.466 526.941 612.635 528.414L616.609 527.957C616.428 526.382 616.202 525.005 615.944 523.873L612.044 524.762ZM611.491 522.997C611.608 523.216 611.817 523.766 612.044 524.762L615.944 523.873C615.692 522.767 615.388 521.801 615.015 521.106L611.491 522.997ZM561.049 496.549C592.438 497.654 607.406 515.385 611.491 522.997L615.015 521.106C610.37 512.449 594.224 493.714 561.19 492.552L561.049 496.549ZM521.469 505.434C531.683 500.167 545.335 495.996 561.049 496.549L561.19 492.552C544.685 491.971 530.357 496.35 519.636 501.879L521.469 505.434ZM508.979 513.642C512.143 510.96 516.363 508.067 521.469 505.434L519.636 501.879C514.276 504.643 509.801 507.702 506.392 510.591L508.979 513.642ZM561.225 491.552C544.522 490.965 530.025 495.396 519.178 500.99L521.011 504.545C531.351 499.213 545.173 494.99 561.085 495.55L561.225 491.552ZM615.896 520.633C611.112 511.715 594.671 492.729 561.225 491.552L561.085 495.55C592.885 496.669 608.147 514.651 612.372 522.524L615.896 520.633ZM616.919 523.65C616.66 522.516 616.333 521.447 615.896 520.633L612.372 522.524C612.553 522.862 612.786 523.516 613.019 524.54L616.919 523.65ZM617.603 527.843C617.419 526.242 617.187 524.828 616.919 523.65L613.019 524.54C613.247 525.538 613.456 526.801 613.629 528.3L617.603 527.843ZM618.06 539.7C618.164 535.103 617.971 531.046 617.603 527.843L613.629 528.3C613.974 531.296 614.162 535.167 614.061 539.61L618.06 539.7ZM612.82 571.688C616.459 560.379 617.853 548.888 618.06 539.7L614.061 539.61C613.861 548.501 612.509 559.596 609.012 570.463L612.82 571.688ZM593.909 602.779C603.259 594.242 609.182 582.992 612.82 571.688L609.012 570.463C605.514 581.333 599.895 591.897 591.212 599.825L593.909 602.779ZM554.863 617.458C571.795 617.068 584.513 611.358 593.909 602.779L591.212 599.825C582.556 607.729 570.773 613.091 554.771 613.459L554.863 617.458ZM514.598 603.857C523.796 612.634 536.834 618.039 554.881 617.457L554.752 613.459C537.644 614.011 525.69 608.912 517.359 600.963L514.598 603.857ZM497.635 571.409C500.341 583.316 505.463 595.14 514.598 603.857L517.359 600.963C508.989 592.976 504.139 581.978 501.535 570.523L497.635 571.409ZM495.184 537.609C494.592 547.299 494.925 559.49 497.635 571.409L501.535 570.523C498.933 559.075 498.6 547.284 499.177 537.852L495.184 537.609ZM496.603 525.18C496.01 528.5 495.48 532.757 495.184 537.609L499.177 537.852C499.464 533.141 499.978 529.038 500.541 525.883L496.603 525.18ZM498.552 518C497.851 519.36 497.174 521.979 496.603 525.18L500.541 525.883C501.116 522.657 501.715 520.593 502.108 519.832L498.552 518ZM505.746 509.828C502.326 512.726 499.787 515.603 498.552 518L502.108 519.832C502.993 518.114 505.076 515.639 508.332 512.88L505.746 509.828ZM519.178 500.99C513.754 503.787 509.215 506.887 505.746 509.828L508.332 512.88C511.558 510.146 515.841 507.211 521.011 504.545L519.178 500.99ZM780.559 518.458C779.412 516.231 776.986 513.454 773.608 510.591L771.021 513.642C774.236 516.367 776.206 518.742 777.003 520.29L780.559 518.458ZM782.413 525.356C781.841 522.149 781.183 519.669 780.559 518.458L777.003 520.29C777.318 520.901 777.898 522.826 778.475 526.059L782.413 525.356ZM783.818 537.669C783.524 532.853 782.998 528.634 782.413 525.356L778.475 526.059C779.031 529.172 779.54 533.237 779.825 537.913L783.818 537.669ZM781.39 571.188C784.073 559.386 784.406 547.295 783.818 537.67L779.825 537.913C780.397 547.28 780.065 558.972 777.49 570.301L781.39 571.188ZM764.712 603.133C773.656 594.599 778.71 582.981 781.39 571.188L777.49 570.301C774.912 581.644 770.129 592.435 761.951 600.239L764.712 603.133ZM725.149 616.458C742.962 617.033 755.73 611.704 764.712 603.133L761.951 600.239C753.836 607.982 742.152 613.004 725.278 612.46L725.149 616.458ZM725.156 616.458L725.161 616.458L725.266 612.459L725.261 612.459L725.156 616.458ZM686.766 602.041C695.976 610.451 708.461 616.074 725.163 616.458L725.255 612.459C709.483 612.097 697.934 606.822 689.463 599.087L686.766 602.041ZM668.132 571.382C671.735 582.577 677.582 593.655 686.766 602.041L689.463 599.087C680.946 591.311 675.403 580.918 671.94 570.157L668.132 571.382ZM662.939 539.678C663.145 548.792 664.528 560.184 668.132 571.382L671.94 570.157C668.478 559.401 667.137 548.404 666.938 539.588L662.939 539.678ZM663.391 527.957C663.028 531.109 662.837 535.119 662.939 539.678L666.938 539.588C666.839 535.183 667.026 531.358 667.365 528.414L663.391 527.957ZM664.056 523.873C663.798 525.005 663.572 526.382 663.391 527.957L667.365 528.414C667.534 526.941 667.739 525.715 667.956 524.762L664.056 523.873ZM664.985 521.106C664.612 521.801 664.308 522.767 664.056 523.873L667.956 524.762C668.183 523.766 668.392 523.216 668.509 522.997L664.985 521.106ZM718.81 492.552C685.776 493.714 669.63 512.449 664.985 521.106L668.509 522.997C672.594 515.385 687.562 497.654 718.951 496.549L718.81 492.552ZM760.364 501.879C749.643 496.35 735.315 491.971 718.81 492.552L718.951 496.549C734.665 495.996 748.317 500.167 758.531 505.434L760.364 501.879ZM773.608 510.591C770.199 507.702 765.724 504.643 760.364 501.879L758.531 505.434C763.637 508.067 767.857 510.96 771.021 513.642L773.608 510.591ZM718.915 495.55C734.827 494.99 748.649 499.213 758.989 504.545L760.822 500.99C749.975 495.396 735.478 490.965 718.775 491.552L718.915 495.55ZM667.628 522.524C671.853 514.651 687.115 496.669 718.915 495.55L718.775 491.552C685.329 492.729 668.888 511.715 664.104 520.633L667.628 522.524ZM666.981 524.54C667.214 523.516 667.447 522.862 667.628 522.524L664.104 520.633C663.667 521.447 663.34 522.516 663.081 523.65L666.981 524.54ZM666.371 528.3C666.544 526.801 666.753 525.538 666.981 524.54L663.081 523.65C662.813 524.828 662.581 526.242 662.397 527.843L666.371 528.3ZM665.939 539.61C665.838 535.167 666.026 531.296 666.371 528.3L662.397 527.843C662.029 531.046 661.836 535.103 661.94 539.7L665.939 539.61ZM670.988 570.463C667.491 559.596 666.139 548.501 665.939 539.61L661.94 539.7C662.147 548.888 663.541 560.379 667.18 571.688L670.988 570.463ZM688.788 599.825C680.105 591.897 674.486 581.333 670.988 570.463L667.18 571.688C670.818 582.992 676.741 594.242 686.091 602.779L688.788 599.825ZM725.229 613.459C709.227 613.091 697.444 607.729 688.788 599.825L686.091 602.779C695.487 611.358 708.205 617.068 725.137 617.458L725.229 613.459ZM762.641 600.963C754.31 608.912 742.356 614.011 725.248 613.459L725.119 617.457C743.166 618.039 756.204 612.634 765.402 603.857L762.641 600.963ZM778.465 570.523C775.861 581.978 771.011 592.976 762.641 600.963L765.402 603.857C774.537 595.14 779.659 583.316 782.365 571.409L778.465 570.523ZM780.823 537.852C781.4 547.284 781.067 559.075 778.465 570.523L782.365 571.409C785.075 559.49 785.408 547.299 784.816 537.609L780.823 537.852ZM779.459 525.883C780.022 529.038 780.536 533.141 780.823 537.852L784.816 537.609C784.52 532.757 783.99 528.5 783.397 525.18L779.459 525.883ZM777.892 519.832C778.285 520.593 778.884 522.657 779.459 525.883L783.397 525.18C782.826 521.979 782.149 519.36 781.448 518L777.892 519.832ZM771.668 512.88C774.924 515.639 777.007 518.114 777.892 519.832L781.448 518C780.213 515.603 777.674 512.726 774.254 509.828L771.668 512.88ZM758.989 504.545C764.159 507.211 768.442 510.146 771.668 512.88L774.254 509.828C770.785 506.887 766.246 503.787 760.822 500.99L758.989 504.545Z" fill="black"/></g></g></g>    </g><g id="notion-avatar-hair" transform="scale(-1,1) translate(-1080, 0)">      <!--?xml version="1.0" encoding="UTF-8"?-->    <title>Hairstyle/ 5</title>    <g id="Hairstyle/-5" stroke="none" stroke-width="1" fill="none" fill-rule="evenodd" stroke-linecap="round" stroke-linejoin="round">        <path d="M623,264 C701.810134,298.151058 736.674249,344.123631 741,379 C743.95879,402.855244 738.292123,428.188578 724,455 C666,448.333333 620.333333,452 587,466 C520.819135,493.795963 452.819135,492.129296 383,461 C391.19759,494.978015 399,522 395,559 C392.333333,583.666667 384.333333,621.333333 371,672 C346.672242,617.194008 331.338909,585.527342 325,577 C318.661091,568.472658 305.994424,562.472658 287,559 C271.634723,501.922397 259,475 269,431 C279,387 315.912503,338.292045 358,325 C362.714614,323.511034 356.047947,314.177701 338,297 C388.266605,282.037882 424.375148,273.411755 446.325628,271.121621 C454.054785,270.315224 451.279576,260.274684 438,241 C508.793244,233.565961 570.459911,241.232628 623,264 Z" id="Path" stroke="#000000" stroke-width="12" fill="#000000"/>    </g>    </g><g id="notion-avatar-accessories" transform="scale(-1,1) translate(-1080, 0)">      <g id="Accessories/ 12"><g id="Group"><path id="Path" d="M848.364 445.584C849.787 445.071 851.352 445.115 852.744 445.707L850.397 451.229C852.744 445.707 852.745 445.707 852.747 445.708L852.75 445.709L852.759 445.713L852.787 445.725L852.876 445.763C852.95 445.796 853.054 445.841 853.185 445.899C853.448 446.015 853.819 446.182 854.28 446.396C855.199 446.822 856.483 447.439 857.966 448.21C860.889 449.731 864.778 451.952 868.204 454.609C871.355 457.053 875.296 460.743 876.573 465.471C877.29 468.125 877.144 471.033 875.712 473.814C874.356 476.446 872.1 478.476 869.469 480.075C863.829 483.501 856.637 484.18 849.944 483.852C843.082 483.515 835.794 482.064 829.258 480.353C822.687 478.634 816.679 476.6 812.325 475.003C810.143 474.202 808.364 473.506 807.122 473.007C806.501 472.758 806.014 472.557 805.677 472.417C805.509 472.347 805.378 472.292 805.287 472.253L805.18 472.208L805.15 472.195L805.14 472.191L805.137 472.19C805.136 472.189 805.135 472.189 807.503 466.676L805.135 472.189C802.871 471.216 801.432 468.958 801.506 466.495C801.58 464.033 803.152 461.866 805.47 461.031L848.364 445.584Z" fill="white" stroke="black" stroke-width="12" stroke-linecap="round" stroke-linejoin="round"/><path id="Path_2" d="M861.983 450.136C864.506 451.321 865.881 454.088 865.301 456.815C864.721 459.542 862.34 461.51 859.552 461.566L859.551 461.566L859.536 461.566L859.47 461.568C859.409 461.569 859.315 461.571 859.191 461.575C858.941 461.581 858.568 461.592 858.084 461.609C857.116 461.642 855.708 461.697 853.968 461.787C850.482 461.968 845.689 462.285 840.45 462.832C829.639 463.959 818.065 465.961 811.673 469.176C782.246 483.973 750.71 499.226 720.703 510.561C690.825 521.848 661.816 529.509 637.597 528.591C594.287 526.948 545.131 507.141 507.283 488.165C488.255 478.625 471.883 469.19 460.266 462.139C454.454 458.612 449.826 455.678 446.644 453.62C445.052 452.591 443.822 451.781 442.985 451.225C442.566 450.947 442.246 450.733 442.028 450.587L441.908 450.506L441.779 450.419L441.713 450.374L441.695 450.362L441.689 450.358C441.688 450.357 441.686 450.356 445.06 445.395L441.686 450.356C439.683 448.994 438.696 446.561 439.183 444.188C439.67 441.815 441.536 439.968 443.914 439.505L721.566 385.467C722.815 385.223 724.11 385.384 725.262 385.925L861.983 450.136Z" fill="white" stroke="black" stroke-width="12" stroke-linecap="round" stroke-linejoin="round"/><path id="Path_3" d="M742.712 401.356L748.621 400.312C749.13 403.194 747.486 406.022 744.73 407.006L742.712 401.356ZM742.712 401.356C748.621 400.312 748.62 400.309 748.619 400.304L748.617 400.291L748.61 400.25C748.604 400.217 748.595 400.17 748.584 400.111C748.562 399.993 748.531 399.825 748.489 399.607C748.405 399.173 748.279 398.542 748.108 397.73C747.765 396.106 747.239 393.752 746.495 390.777C745.007 384.828 742.644 376.386 739.126 366.312C732.097 346.184 720.417 319.43 701.806 293.031C664.434 240.023 599.167 188.634 488.669 195.067C378.312 201.491 322.938 256.206 295.494 309.669C281.857 336.234 275.177 362.341 271.899 381.774C270.257 391.502 269.462 399.591 269.078 405.274C268.886 408.116 268.796 410.36 268.754 411.909C268.734 412.683 268.725 413.284 268.721 413.7C268.72 413.908 268.719 414.07 268.719 414.184C268.719 414.241 268.719 414.286 268.72 414.319L268.72 414.359L268.72 414.372C268.72 414.377 268.72 414.381 274.72 414.327M742.712 401.356C744.73 407.006 744.729 407.007 744.728 407.007L744.725 407.008L744.714 407.012L744.672 407.027L744.508 407.085C744.364 407.136 744.151 407.212 743.872 407.311C743.314 407.508 742.491 407.798 741.428 408.169C739.303 408.913 736.215 409.984 732.358 411.298C724.646 413.926 713.849 417.531 701.507 421.436C676.883 429.227 645.881 438.29 620.931 443.146C596.034 447.992 557.102 452.549 524.587 455.885C508.288 457.557 493.533 458.929 482.852 459.883C477.511 460.36 473.188 460.733 470.198 460.986C468.703 461.113 467.542 461.21 466.753 461.275C466.359 461.308 466.058 461.333 465.855 461.349L465.625 461.368L465.566 461.373L465.551 461.374L465.548 461.375C465.547 461.375 465.546 461.375 465.061 455.394M274.72 414.327C270.992 419.028 270.993 419.029 270.994 419.03L270.998 419.033L271.006 419.039L271.031 419.059L271.116 419.126C271.189 419.182 271.291 419.262 271.423 419.364C271.687 419.567 272.069 419.858 272.564 420.228C273.553 420.966 274.994 422.017 276.837 423.298C280.521 425.858 285.828 429.346 292.372 433.1C305.414 440.58 323.591 449.24 343.776 453.595C363.727 457.9 394.227 459.822 419.367 460.692C432.015 461.13 443.442 461.306 451.706 461.372C455.839 461.405 459.184 461.41 461.499 461.408C462.656 461.406 463.556 461.403 464.168 461.4C464.475 461.398 464.709 461.397 464.867 461.396L465.048 461.395L465.095 461.394L465.107 461.394L465.11 461.394C465.111 461.394 465.112 461.394 465.061 455.394M274.72 414.327L270.992 419.028C269.571 417.902 268.736 416.194 268.72 414.381L274.72 414.327ZM465.061 455.394L465.546 461.375C465.402 461.386 465.257 461.393 465.112 461.394L465.061 455.394Z" fill="white" stroke="black" stroke-width="12" stroke-linecap="round" stroke-linejoin="round"/><path id="Oval" d="M467.691 222.831C459.814 223.798 452.181 223.033 446.139 220.727C440.381 218.529 434.472 214.203 433.606 207.15C432.739 200.096 437.427 194.469 442.482 190.944C447.787 187.244 455.008 184.655 462.885 183.688C470.762 182.721 478.395 183.486 484.437 185.792C490.196 187.99 496.105 192.316 496.971 199.369C497.837 206.423 493.15 212.05 488.094 215.575C482.789 219.275 475.568 221.864 467.691 222.831Z" fill="white" stroke="black" stroke-width="12" stroke-linecap="round" stroke-linejoin="round"/></g></g>    </g><g id="notion-avatar-details" transform="scale(-1,1) translate(-1080, 0)">      <!--?xml version="1.0" encoding="UTF-8"?-->    <title>Details/ 0</title>    <g id="Details/-0" stroke="none" stroke-width="1" fill="none" fill-rule="evenodd"/>    </g><g id="notion-avatar-beard" transform="scale(-1,1) translate(-1080, 0)">      <g id="Beard/ 11"><g id="Shape"><path fill-rule="evenodd" clip-rule="evenodd" d="M678.921 715.755C694.162 721.538 703.262 732.755 709.667 745.755C716.073 758.755 727.88 802.755 724.677 821.755C721.474 840.755 691.162 873 670 883C653.946 890.586 583.895 908.877 557.677 902.755C517.899 893.465 475.677 877.755 470.677 858.755C465.677 839.755 489.677 758.755 499.677 745.755C509.568 732.896 523.575 721.782 546.905 715.945L547.677 715.755C563.067 712.014 604.035 706.26 624.356 706.007C644.677 705.755 669.428 712.152 678.921 715.755ZM624 722C598.859 722.313 550.451 733.783 539.677 740.755C522.677 751.755 517.677 791.755 522.677 806.755C527.677 821.755 553.677 832.755 564.677 832.755C575.677 832.755 600.677 813.755 605.677 810.755C608.95 808.791 616.078 807.47 627.063 806.792L627.677 806.755C634.937 807.421 639.769 809.755 643 813C646.231 816.245 656 833 669 833C682 833 691.732 821.755 694.935 806.755C698.138 791.755 694.935 751.755 684.045 740.755C676.859 733.495 649.141 721.687 624 722Z" fill="black"/><path d="M678.921 715.755L676.792 721.364L678.921 715.755ZM670 883L667.436 877.575L670 883ZM557.677 902.755L556.313 908.597L557.677 902.755ZM499.677 745.755L504.433 749.413L499.677 745.755ZM546.905 715.945L545.468 710.12C545.461 710.121 545.455 710.123 545.448 710.124L546.905 715.945ZM547.677 715.755L546.26 709.924C546.254 709.926 546.247 709.927 546.241 709.929L547.677 715.755ZM539.677 740.755L536.418 735.717L539.677 740.755ZM605.677 810.755L608.764 815.9L605.677 810.755ZM627.063 806.792L626.702 800.802L626.693 800.803L627.063 806.792ZM627.677 806.755L628.226 800.78C627.923 800.752 627.619 800.747 627.316 800.765L627.677 806.755ZM669 833V827V833ZM684.045 740.755L679.781 744.976L684.045 740.755ZM676.792 721.364C690.138 726.428 698.286 736.231 704.285 748.406L715.05 743.103C708.238 729.278 698.186 716.647 681.05 710.145L676.792 721.364ZM704.285 748.406C707.17 754.262 711.6 767.96 714.92 782.813C716.562 790.162 717.893 797.62 718.619 804.337C719.355 811.148 719.425 816.817 718.761 820.757L730.594 822.752C731.531 817.192 731.326 810.236 730.549 803.047C729.762 795.765 728.341 787.848 726.631 780.196C723.246 765.049 718.57 750.247 715.05 743.103L704.285 748.406ZM718.761 820.757C718.146 824.404 716.1 829.214 712.657 834.775C709.268 840.249 704.756 846.082 699.633 851.716C689.291 863.093 677.037 873.038 667.436 877.575L672.564 888.425C684.125 882.962 697.608 871.784 708.513 859.788C714.014 853.737 719.003 847.32 722.86 841.092C726.663 834.951 729.607 828.605 730.594 822.752L718.761 820.757ZM667.436 877.575C660.081 881.051 639.133 887.407 616.425 892.145C605.167 894.493 593.687 896.398 583.478 897.343C573.121 898.302 564.62 898.215 559.042 896.912L556.313 908.597C563.843 910.356 573.93 910.278 584.583 909.292C595.384 908.293 607.336 906.299 618.875 903.892C641.76 899.118 663.865 892.535 672.564 888.425L667.436 877.575ZM559.042 896.912C539.359 892.315 519.292 886.176 503.652 878.949C495.824 875.332 489.321 871.54 484.569 867.681C479.74 863.76 477.266 860.215 476.48 857.228L464.875 860.282C466.589 866.794 471.267 872.338 477.004 876.997C482.817 881.717 490.294 885.996 498.619 889.843C515.284 897.543 536.217 903.904 556.313 908.597L559.042 896.912ZM476.48 857.228C476.091 855.75 475.882 853.138 476.07 849.268C476.253 845.51 476.785 840.976 477.615 835.874C479.274 825.678 482.063 813.582 485.34 801.586C488.615 789.598 492.345 777.828 495.855 768.296C497.61 763.527 499.29 759.376 500.809 756.065C502.376 752.648 503.616 750.475 504.433 749.413L494.921 742.096C493.238 744.284 491.541 747.486 489.901 751.062C488.213 754.743 486.416 759.2 484.593 764.15C480.946 774.056 477.114 786.161 473.764 798.423C470.417 810.677 467.518 823.206 465.771 833.947C464.897 839.315 464.296 844.327 464.085 848.686C463.878 852.933 464.014 857.009 464.875 860.282L476.48 857.228ZM504.433 749.413C513.547 737.565 526.417 727.256 548.361 721.766L545.448 710.124C520.734 716.308 505.59 728.227 494.921 742.096L504.433 749.413ZM548.341 721.771L549.114 721.58L546.241 709.929L545.468 710.12L548.341 721.771ZM549.094 721.585C564.089 717.94 604.606 712.253 624.431 712.007L624.281 700.008C603.464 700.267 562.045 706.088 546.26 709.924L549.094 721.585ZM624.431 712.007C643.804 711.766 667.794 717.95 676.792 721.364L681.05 710.145C671.062 706.355 645.55 699.743 624.281 700.008L624.431 712.007ZM623.925 716C610.726 716.165 591.856 719.219 575.118 723.03C566.699 724.948 558.681 727.088 552.035 729.212C545.585 731.274 539.849 733.497 536.418 735.717L542.937 745.792C544.892 744.527 549.247 742.702 555.689 740.642C561.935 738.646 569.611 736.592 577.783 734.731C594.228 730.986 612.133 728.148 624.075 728L623.925 716ZM536.418 735.717C530.94 739.261 526.831 744.846 523.785 750.903C520.711 757.018 518.504 764.043 517.052 771.035C514.207 784.744 514.003 799.706 516.985 808.652L528.369 804.857C526.351 798.803 526.147 786.265 528.802 773.474C530.101 767.216 532.019 761.241 534.506 756.294C537.024 751.288 539.914 747.748 542.937 745.792L536.418 735.717ZM516.985 808.652C520.232 818.392 529.717 825.839 538.559 830.65C547.517 835.524 557.785 838.755 564.677 838.755V826.755C560.57 826.755 552.338 824.485 544.295 820.109C536.137 815.67 530.123 810.117 528.369 804.857L516.985 808.652ZM564.677 838.755C568.81 838.755 573.442 837.072 577.531 835.189C581.823 833.212 586.373 830.598 590.593 827.976C594.833 825.342 598.858 822.626 602.097 820.409C605.487 818.089 607.719 816.527 608.764 815.9L602.59 805.61C601.135 806.482 598.367 808.421 595.319 810.506C592.121 812.695 588.271 815.292 584.261 817.783C580.231 820.286 576.157 822.61 572.511 824.289C568.662 826.062 566.044 826.755 564.677 826.755V838.755ZM608.764 815.9C609.457 815.484 611.195 814.816 614.571 814.191C617.808 813.591 622.073 813.111 627.433 812.78L626.693 800.803C621.069 801.15 616.277 801.67 612.385 802.392C608.633 803.087 605.17 804.062 602.59 805.61L608.764 815.9ZM627.424 812.781L628.038 812.744L627.316 800.765L626.702 800.802L627.424 812.781ZM627.128 812.729C633.319 813.298 636.721 815.197 638.748 817.233L647.252 808.767C642.817 804.312 636.554 801.545 628.226 800.78L627.128 812.729ZM638.748 817.233C639.208 817.696 640.021 818.807 641.857 821.173C643.473 823.255 645.565 825.862 648.037 828.402C652.76 833.256 659.951 839 669 839V827C665.049 827 660.855 824.367 656.636 820.032C654.637 817.977 652.868 815.788 651.337 813.815C650.027 812.127 648.407 809.927 647.252 808.767L638.748 817.233ZM669 839C686.058 839 697.31 824.365 700.803 808.007L689.067 805.502C686.154 819.144 677.942 827 669 827V839ZM700.803 808.007C702.61 799.54 702.523 785.012 700.722 771.464C699.81 764.604 698.426 757.731 696.502 751.759C694.632 745.952 692.037 740.299 688.31 736.533L679.781 744.976C681.499 746.71 683.387 750.182 685.08 755.438C686.72 760.528 687.978 766.656 688.827 773.045C690.549 785.998 690.462 798.969 689.067 805.502L700.803 808.007ZM688.31 736.533C685.881 734.081 682.178 731.645 677.979 729.417C673.674 727.133 668.465 724.869 662.729 722.871C651.304 718.893 637.38 715.833 623.925 716L624.075 728C635.761 727.854 648.266 730.541 658.782 734.204C664.016 736.026 668.656 738.055 672.355 740.018C676.16 742.036 678.616 743.799 679.781 744.976L688.31 736.533Z" fill="black"/></g></g>    </g>      </g>      </svg>