<?xml version="1.0" standalone="no"?>
<!DOCTYPE svg PUBLIC "-//W3C//DTD SVG 20010904//EN"
 "http://www.w3.org/TR/2001/REC-SVG-20010904/DTD/svg10.dtd">
<svg version="1.0" xmlns="http://www.w3.org/2000/svg"
 width="720.000000pt" height="960.000000pt" viewBox="0 0 720.000000 960.000000"
 preserveAspectRatio="xMidYMid meet">

<g transform="translate(0.000000,960.000000) scale(0.100000,-0.100000)"
fill="#000000" stroke="none">
<path d="M490 9580 c0 -11 2 -20 5 -20 2 0 9 9 15 20 9 16 8 20 -5 20 -8 0
-15 -9 -15 -20z"/>
<path d="M236 9507 c3 -10 9 -15 12 -12 3 3 0 11 -7 18 -10 9 -11 8 -5 -6z"/>
<path d="M280 9490 c0 -5 6 -10 14 -10 8 0 18 5 21 10 3 6 -3 10 -14 10 -12 0
-21 -4 -21 -10z"/>
<path d="M1270 9478 c0 -7 4 -19 9 -27 6 -8 6 -24 0 -38 -10 -27 -1 -85 13
-77 5 3 7 12 4 20 -8 21 11 64 29 64 26 0 17 37 -10 44 -14 4 -25 11 -25 16 0
6 -4 10 -10 10 -5 0 -10 -6 -10 -12z"/>
<path d="M2225 9429 c-10 -15 1 -23 20 -15 9 3 13 10 10 16 -8 13 -22 13 -30
-1z"/>
<path d="M870 9370 c0 -5 7 -10 16 -10 8 0 12 5 9 10 -3 6 -10 10 -16 10 -5 0
-9 -4 -9 -10z"/>
<path d="M350 9348 c0 -23 16 -39 33 -32 20 7 21 16 5 32 -16 16 -38 15 -38 0z"/>
<path d="M390 9259 c0 -12 7 -30 15 -39 23 -25 26 -82 6 -98 -9 -7 -11 -11 -5
-8 13 6 27 -18 17 -28 -10 -10 -63 -7 -63 4 0 6 -4 10 -10 10 -14 0 -25 -73
-11 -78 6 -2 11 -8 11 -14 0 -5 -12 0 -26 11 -15 12 -31 21 -37 21 -6 0 -25
12 -44 26 -19 14 -37 23 -40 20 -4 -3 -1 -6 5 -6 20 0 13 -31 -10 -51 -19 -15
-20 -18 -6 -19 10 0 23 6 30 14 11 12 17 12 38 1 63 -32 100 -44 100 -34 0 7
11 9 26 6 21 -4 25 -1 21 14 -3 11 7 29 30 50 27 24 32 33 22 40 -10 6 -11 9
-1 9 6 0 12 7 12 15 0 8 -4 15 -10 15 -5 0 -10 10 -10 23 0 26 -33 102 -49
111 -7 5 -11 -1 -11 -15z m-30 -199 c0 -5 -4 -10 -10 -10 -5 0 -10 5 -10 10 0
6 5 10 10 10 6 0 10 -4 10 -10z m45 0 c-3 -5 -13 -10 -21 -10 -8 0 -14 5 -14
10 0 6 9 10 21 10 11 0 17 -4 14 -10z"/>
<path d="M1087 9224 c-9 -10 2 -24 19 -24 8 0 14 7 14 15 0 15 -21 21 -33 9z"/>
<path d="M426 8985 c7 -18 44 -40 44 -27 0 10 -33 42 -43 42 -3 0 -4 -7 -1
-15z"/>
<path d="M5131 8976 c-9 -10 -8 -15 2 -19 8 -3 13 3 14 14 2 23 -1 24 -16 5z"/>
<path d="M1330 8964 c0 -8 5 -12 10 -9 6 4 8 11 5 16 -9 14 -15 11 -15 -7z"/>
<path d="M1095 8950 c4 -6 11 -8 16 -5 14 9 11 15 -7 15 -8 0 -12 -5 -9 -10z"/>
<path d="M1145 8940 c3 -5 10 -10 16 -10 5 0 9 5 9 10 0 6 -7 10 -16 10 -8 0
-12 -4 -9 -10z"/>
<path d="M1200 8940 c-12 -8 -11 -10 7 -10 12 0 25 5 28 10 8 13 -15 13 -35 0z"/>
<path d="M600 8930 c0 -4 9 -10 20 -13 11 -3 20 -2 20 3 0 4 -9 10 -20 13 -11
3 -20 2 -20 -3z"/>
<path d="M5411 8809 c2 -13 0 -30 -4 -36 -10 -16 1 -36 14 -28 13 8 11 72 -2
81 -7 4 -10 -2 -8 -17z"/>
<path d="M5345 8750 c3 -5 8 -10 11 -10 2 0 4 5 4 10 0 6 -5 10 -11 10 -5 0
-7 -4 -4 -10z"/>
<path d="M5405 8721 c3 -5 1 -12 -5 -16 -15 -9 -12 -22 5 -22 9 0 15 10 15 24
0 13 -5 23 -11 23 -5 0 -8 -4 -4 -9z"/>
<path d="M5367 8675 c-3 -16 -5 -59 -5 -94 1 -57 2 -61 14 -40 7 13 13 36 14
51 0 15 5 30 10 33 6 3 10 11 10 16 0 6 -4 8 -10 4 -5 -3 -13 9 -18 27 l-9 33
-6 -30z"/>
<path d="M5410 8609 c-27 -100 -52 -149 -75 -149 -8 0 -15 -3 -15 -7 1 -21 31
-177 35 -182 7 -6 34 30 35 47 0 6 -7 12 -15 12 -9 0 -12 -6 -8 -17 4 -11 3
-14 -5 -9 -7 4 -12 26 -12 49 0 38 1 39 14 21 8 -10 18 -16 22 -12 4 4 1 14
-5 22 -10 11 -9 16 5 24 11 6 15 16 11 27 -4 9 0 23 9 32 11 11 14 27 11 47
-2 17 0 40 4 51 8 17 9 15 6 -7 -3 -16 0 -28 6 -28 6 0 7 -16 3 -41 -4 -26 -3
-38 4 -34 11 7 12 185 2 223 -5 17 -13 0 -32 -69z m0 -99 c0 -5 -5 -10 -11
-10 -5 0 -7 5 -4 10 3 6 8 10 11 10 2 0 4 -4 4 -10z m-33 -82 c-3 -8 -6 -5 -6
6 -1 11 2 17 5 13 3 -3 4 -12 1 -19z"/>
<path d="M5337 8673 c-4 -3 -7 -11 -7 -17 0 -6 5 -5 12 2 6 6 9 14 7 17 -3 3
-9 2 -12 -2z"/>
<path d="M5542 8582 c-3 -55 -50 -248 -73 -302 -16 -37 -19 -59 -14 -87 10
-56 11 -122 2 -173 -6 -32 -5 -41 2 -30 6 8 11 11 12 5 0 -5 4 -1 9 10 4 11 6
36 3 56 -3 20 0 60 6 90 6 30 12 65 15 79 18 106 48 245 56 260 13 23 13 33 1
25 -6 -3 -12 17 -14 47 -2 30 -4 39 -5 20z m-51 -305 c-10 -9 -11 -8 -5 6 3
10 9 15 12 12 3 -3 0 -11 -7 -18z"/>
<path d="M5510 8580 c0 -5 5 -10 11 -10 5 0 7 5 4 10 -3 6 -8 10 -11 10 -2 0
-4 -4 -4 -10z"/>
<path d="M5500 8546 c0 -9 5 -16 10 -16 6 0 10 4 10 9 0 6 -4 13 -10 16 -5 3
-10 -1 -10 -9z"/>
<path d="M5490 8490 c0 -5 5 -10 10 -10 6 0 10 5 10 10 0 6 -4 10 -10 10 -5 0
-10 -4 -10 -10z"/>
<path d="M5590 8466 c-11 -35 -5 -86 11 -86 5 0 9 27 9 60 0 33 -2 60 -4 60
-3 0 -9 -15 -16 -34z"/>
<path d="M5481 8394 c-7 -26 -10 -48 -7 -51 5 -5 11 14 21 65 10 49 -1 38 -14
-14z"/>
<path d="M5423 8343 c-7 -38 -8 -73 -3 -82 6 -11 8 -9 7 9 0 14 3 51 7 83 11
79 3 72 -11 -10z"/>
<path d="M5635 8330 c3 -5 10 -10 16 -10 5 0 9 5 9 10 0 6 -7 10 -16 10 -8 0
-12 -4 -9 -10z"/>
<path d="M5687 8265 c-9 -21 4 -185 15 -191 4 -3 8 40 8 95 0 92 -10 132 -23
96z"/>
<path d="M5391 8234 c0 -11 3 -14 6 -6 3 7 2 16 -1 19 -3 4 -6 -2 -5 -13z"/>
<path d="M5377 8196 c-4 -10 -7 -56 -7 -102 0 -68 3 -84 15 -84 12 0 15 -14
16 -67 0 -38 4 -77 9 -88 6 -13 8 13 7 75 -1 70 -5 94 -14 93 -18 -4 -16 22 2
41 8 8 15 23 14 33 0 16 -1 16 -9 -2 -8 -18 -9 -17 -9 8 -1 15 4 27 9 27 6 0
9 17 9 38 -2 34 -2 35 -7 7 l-4 -30 -12 34 c-10 28 -14 31 -19 17z"/>
<path d="M5506 8003 c6 -4 30 -35 53 -67 22 -33 41 -55 41 -49 0 17 -74 116
-90 121 -10 2 -11 1 -4 -5z"/>
<path d="M5480 7907 c0 -17 74 -129 78 -118 2 7 -8 30 -22 51 -33 50 -33 63
-1 27 14 -15 30 -27 36 -27 5 0 1 10 -11 22 -11 12 -20 25 -20 29 0 4 -9 6
-21 4 -14 -3 -19 0 -16 9 3 7 -1 13 -9 13 -8 0 -14 -5 -14 -10z"/>
<path d="M5705 7875 c2 -24 9 -52 15 -62 10 -16 11 -15 6 7 -3 14 -6 42 -6 63
0 20 -4 37 -9 37 -5 0 -8 -20 -6 -45z"/>
<path d="M5348 7801 c-3 -32 -1 -37 10 -29 7 6 11 17 8 25 -3 8 -1 11 4 8 12
-7 12 -3 4 19 -11 28 -22 17 -26 -23z"/>
<path d="M5410 7823 c0 -5 7 -27 15 -51 14 -39 14 -45 -5 -85 -25 -54 -53 -73
-72 -50 -7 9 -12 18 -10 20 11 15 -2 31 -24 29 -23 -1 -25 -4 -20 -36 11 -72
14 -87 26 -159 8 -53 9 -76 1 -84 -6 -6 -11 -18 -11 -26 0 -14 1 -14 10 -1 8
13 10 13 10 -2 0 -10 -9 -22 -20 -28 -17 -9 -20 -17 -14 -48 4 -20 11 -46 17
-57 6 -11 10 -83 11 -160 0 -77 2 -114 4 -81 2 43 8 63 22 75 12 10 23 37 29
71 6 38 9 45 10 23 0 -17 4 -34 9 -36 4 -3 5 17 4 43 -3 35 -7 47 -17 44 -8
-3 -16 4 -21 18 -11 36 -5 120 10 132 8 6 16 25 19 41 18 92 48 165 69 165 4
0 8 7 8 16 0 10 -6 14 -15 11 -11 -5 -12 -1 -5 19 6 14 10 44 10 67 0 44 -28
137 -42 137 -4 0 -8 -3 -8 -7z m10 -198 c-22 -42 -22 -36 1 29 8 21 15 33 17
25 1 -8 -7 -32 -18 -54z m-90 23 c0 -13 -23 -5 -28 10 -2 7 2 10 12 6 9 -3 16
-11 16 -16z m30 -78 c4 0 6 8 3 19 -3 11 2 21 11 24 9 4 16 2 16 -3 0 -6 -4
-10 -8 -10 -4 0 -8 -9 -8 -20 0 -11 4 -20 9 -20 4 0 5 -5 2 -10 -5 -8 -11 -7
-21 1 -17 14 -19 -2 -3 -18 8 -8 8 -19 1 -40 -9 -25 -11 -25 -11 -5 -1 12 -6
22 -12 22 -7 0 -10 12 -7 29 2 17 1 28 -4 25 -18 -12 -21 29 -2 43 17 13 19
12 22 -11 2 -15 7 -26 12 -26z m62 -27 c-10 -15 -22 -39 -26 -53 -7 -24 -12
-37 -34 -90 -10 -25 -11 -25 -11 8 -1 17 4 32 9 32 6 0 10 6 10 13 0 8 10 33
23 58 30 60 38 71 44 65 3 -3 -4 -17 -15 -33z"/>
<path d="M5382 7779 c-10 -15 -10 -19 -1 -14 8 5 10 4 5 -3 -4 -7 -13 -12 -21
-12 -7 0 -15 -7 -19 -15 -11 -29 -26 -16 -21 17 l6 32 -25 -23 c-40 -38 -31
-71 18 -62 4 1 14 -3 21 -9 18 -15 48 30 51 76 4 40 3 41 -14 13z m-72 -44
c-7 -9 -15 -13 -19 -10 -3 3 1 10 9 15 21 14 24 12 10 -5z"/>
<path d="M5723 7730 c0 -25 2 -35 4 -22 2 12 2 32 0 45 -2 12 -4 2 -4 -23z"/>
<path d="M5407 7720 c-9 -11 -17 -25 -17 -31 0 -6 -7 -17 -15 -26 -17 -16 -14
-29 4 -18 13 7 54 85 49 91 -2 2 -12 -6 -21 -16z"/>
<path d="M128 7693 c6 -2 18 -2 25 0 6 3 1 5 -13 5 -14 0 -19 -2 -12 -5z"/>
<path d="M218 7693 c7 -3 16 -2 19 1 4 3 -2 6 -13 5 -11 0 -14 -3 -6 -6z"/>
<path d="M18 7683 c12 -2 30 -2 40 0 9 3 -1 5 -23 4 -22 0 -30 -2 -17 -4z"/>
<path d="M2938 7412 c-32 -4 -33 -10 -16 -84 l12 -53 6 35 c6 31 7 27 13 -30
10 -105 37 -519 39 -592 1 -64 -13 -105 -32 -93 -5 3 -9 78 -10 167 0 90 -4
166 -8 170 -11 10 -414 80 -433 75 -10 -3 -19 -2 -21 2 -3 8 -291 61 -718 132
l-245 41 -285 -11 c-547 -22 -600 -24 -600 -30 0 -3 59 -64 132 -134 84 -81
121 -122 101 -112 -18 9 -33 20 -33 25 0 5 -9 14 -20 20 -17 9 -20 8 -18 -7 3
-39 -3 -53 -21 -53 -28 0 -52 -11 -46 -21 3 -5 -7 -11 -22 -14 -15 -4 -48 -11
-72 -16 -39 -9 -74 -3 -43 8 6 3 12 9 12 14 0 13 -26 11 -42 -3 -7 -7 -30 -21
-50 -30 -39 -18 -43 -16 -39 22 2 12 0 12 -7 2 -11 -16 -49 12 -260 184 -117
96 -130 104 -169 104 l-43 0 0 -383 0 -382 65 0 c36 0 65 2 65 5 0 4 196 5
270 1 8 0 43 0 77 2 59 2 64 0 100 -35 22 -21 44 -38 50 -38 7 0 12 -22 12
-57 1 -78 4 -97 16 -105 6 -5 6 -8 -1 -8 -6 0 -11 -7 -11 -15 0 -8 3 -15 7
-15 4 0 7 -7 7 -15 0 -8 -4 -15 -8 -15 -20 0 7 -41 37 -55 31 -15 34 -20 34
-59 0 -51 22 -68 48 -36 15 17 32 19 155 22 88 2 137 -1 137 -7 0 -6 -9 -27
-20 -48 -25 -46 -25 -47 5 -79 21 -23 25 -37 25 -87 0 -33 -5 -72 -12 -88 -6
-16 -12 -96 -13 -190 -2 -89 -11 -252 -21 -363 -14 -159 -15 -209 -6 -234 7
-18 12 -41 11 -52 -1 -15 -3 -14 -9 6 -6 19 -8 10 -9 -36 -1 -33 -4 -64 -8
-68 -8 -8 -11 -166 -3 -166 3 0 6 -9 6 -20 0 -11 -3 -20 -7 -20 -3 0 -9 -24
-13 -52 -3 -29 -9 -69 -13 -88 -9 -48 -9 -72 6 -166 6 -45 12 -125 12 -178 0
-53 4 -94 8 -92 14 9 8 -20 -8 -34 -13 -12 -14 -12 -9 0 3 8 2 24 -2 34 -6 18
-9 16 -23 -13 -9 -19 -15 -37 -12 -41 3 -4 -1 -13 -9 -19 -11 -9 -15 -7 -19 8
-3 14 -11 18 -25 14 -14 -3 -22 1 -27 16 -6 20 -25 30 -25 13 0 -4 -16 -6 -35
-4 -33 4 -35 3 -35 -27 0 -29 -2 -30 -26 -21 -35 14 -42 12 -21 -5 18 -13 18
-14 -2 -32 -12 -10 -31 -21 -44 -25 -37 -10 52 -9 186 3 67 6 125 14 129 18 5
4 -8 5 -27 3 -44 -5 -45 10 -3 39 17 13 29 18 25 12 -4 -6 -1 -13 7 -16 10 -4
13 -16 10 -36 -3 -17 -1 -31 3 -31 13 0 13 -39 1 -46 -7 -4 -8 -2 -4 4 7 12
-13 52 -26 52 -5 0 -7 -3 -6 -7 0 -5 -2 -15 -5 -23 -3 -8 -8 -33 -9 -55 -3
-35 -6 -40 -30 -43 -38 -4 -36 -22 2 -22 20 0 30 -5 30 -15 0 -8 -3 -15 -7
-15 -5 0 -7 -101 -5 -225 3 -194 1 -226 -12 -231 -19 -7 -214 25 -501 82 -121
25 -256 51 -300 59 -44 8 -92 17 -108 21 l-27 6 0 -968 c0 -950 0 -967 19
-950 10 10 25 16 33 15 7 -1 31 6 52 15 47 21 131 36 206 36 30 0 73 5 95 10
66 16 527 23 593 10 69 -14 102 -42 102 -84 0 -24 -3 -27 -10 -16 -7 11 -10
11 -10 2 0 -7 -4 -10 -10 -7 -6 4 -10 -6 -11 -22 0 -24 -1 -25 -9 -8 -7 18 -8
17 -15 -10 -11 -47 -13 -52 -14 -27 -1 35 -18 17 -25 -27 -3 -22 -10 -42 -14
-45 -9 -5 -7 82 2 91 11 11 6 23 -9 23 -19 0 -32 -30 -17 -39 9 -5 8 -17 0
-46 l-12 -40 -5 29 c-5 26 -8 22 -29 -42 -13 -40 -25 -72 -27 -72 -2 0 -2 17
1 37 l4 38 -16 -35 c-9 -19 -20 -46 -25 -59 -5 -13 -12 -21 -15 -18 -3 3 0 15
6 27 6 11 9 26 7 33 -3 7 -12 -6 -21 -28 -31 -74 -37 -84 -31 -47 6 38 -10 35
-20 -5 -3 -14 -13 -36 -21 -47 -15 -20 -15 -20 -8 6 3 17 2 28 -4 28 -5 0 -13
-16 -16 -35 -4 -19 -11 -37 -17 -41 -17 -10 -1 70 17 83 10 7 13 19 9 32 -5
17 -15 21 -48 22 -23 1 -53 5 -67 10 -20 7 -18 8 12 3 43 -6 123 12 139 32 10
12 0 13 -62 8 -41 -3 -85 -1 -99 4 -19 8 -4 10 68 11 51 0 97 3 103 6 22 14
26 -8 7 -41 -15 -26 -23 -32 -29 -22 -6 9 -9 9 -9 1 0 -6 3 -14 8 -16 13 -8
52 12 52 27 0 7 7 17 16 20 15 6 15 9 -4 29 l-21 22 32 15 32 14 -25 7 c-23 6
-23 7 -3 8 12 1 28 3 36 6 10 5 13 -1 9 -25 -2 -16 0 -30 6 -30 11 0 25 58 17
71 -3 4 -29 5 -57 2 -37 -5 -49 -3 -44 5 4 7 27 12 51 12 53 0 75 8 75 27 0
11 -12 13 -62 8 -50 -4 -58 -3 -38 5 14 6 44 10 68 9 45 -3 74 17 49 33 -9 6
-8 10 3 18 13 8 12 10 -3 10 -10 0 -28 -5 -40 -11 l-22 -12 20 23 20 23 -25
-8 c-14 -4 -37 -14 -52 -21 -39 -20 -47 -17 -19 7 l25 20 -30 -7 c-16 -4 -44
-14 -63 -21 -42 -18 -52 -10 -14 12 26 15 27 15 3 9 -14 -3 -49 -17 -79 -30
-64 -29 -74 -30 -42 -4 29 25 21 25 -52 -1 -56 -20 -96 -20 -46 0 13 5 17 10
9 10 -8 1 -39 -8 -68 -19 -66 -25 -88 -25 -42 0 48 26 33 25 -46 -5 -74 -28
-104 -32 -61 -9 15 8 27 17 27 19 0 4 -38 -9 -115 -41 -18 -7 -18 -6 -6 9 7 9
30 22 50 28 20 6 44 21 53 34 18 23 18 24 -10 15 -46 -13 -82 -33 -76 -41 5
-8 -76 -52 -83 -45 -4 4 72 67 102 84 18 11 16 11 -10 6 -46 -10 -85 -33 -85
-49 0 -8 -4 -15 -9 -15 -4 0 -20 -11 -35 -25 -14 -13 -26 -19 -26 -12 1 18 32
55 65 78 28 19 29 20 5 14 -62 -16 -91 -38 -130 -97 l-41 -60 3 -125 3 -125
37 29 c59 44 108 73 126 73 9 0 -6 -14 -32 -31 -27 -16 -55 -36 -62 -42 -7 -7
-27 -23 -44 -37 -22 -18 -30 -32 -30 -57 0 -20 5 -33 13 -33 6 0 45 33 84 74
40 41 78 77 85 80 7 4 24 13 38 21 14 8 34 15 45 14 14 0 9 -6 -18 -20 -21
-11 -85 -68 -143 -126 -90 -92 -104 -111 -104 -140 0 -36 10 -42 30 -18 7 8
10 15 6 15 -8 0 30 46 72 87 18 18 31 33 27 33 -19 0 77 79 148 121 20 13 37
26 37 31 0 4 9 8 21 8 21 0 21 0 -2 -20 -19 -16 -20 -19 -5 -13 31 11 10 -13
-24 -27 -16 -7 -30 -16 -30 -21 0 -5 -7 -9 -15 -9 -8 0 -22 -11 -31 -25 -9
-14 -21 -22 -28 -18 -6 3 -8 3 -5 -1 4 -4 -3 -18 -15 -30 -11 -13 -39 -45 -61
-72 -22 -26 -59 -69 -82 -95 -24 -25 -43 -49 -43 -53 0 -21 64 34 120 104 93
116 132 154 187 186 26 15 50 31 53 36 3 4 30 6 60 4 30 -2 80 0 109 5 73 11
77 4 6 -11 -71 -15 -60 -31 21 -31 36 0 53 -4 44 -9 -7 -5 -15 -14 -16 -22 -1
-7 -5 -21 -9 -30 -6 -14 -2 -18 15 -18 18 0 21 4 18 25 -4 17 -1 25 9 25 10 0
13 6 9 16 -3 9 -6 20 -6 25 0 5 -8 9 -17 10 -14 0 -15 2 -3 6 33 10 60 27 60
36 0 5 -9 7 -20 4 -11 -3 -23 -1 -26 4 -3 5 11 9 30 9 19 0 38 5 41 10 3 6 10
10 15 10 4 0 0 -17 -10 -37 -12 -25 -15 -40 -8 -44 7 -5 6 -19 -2 -45 -16 -49
-30 -66 -30 -35 0 12 -4 19 -10 16 -6 -3 -10 -14 -10 -24 0 -9 -7 -26 -16 -37
-8 -10 -13 -14 -10 -7 4 6 2 14 -4 18 -5 3 -10 0 -10 -7 0 -18 -68 -156 -69
-140 -1 7 6 29 14 49 17 41 19 63 5 63 -5 0 -10 -7 -10 -16 0 -18 -41 -116
-46 -111 -9 9 21 123 35 134 19 13 11 26 -11 18 -18 -7 -52 -75 -38 -75 16 0
12 -21 -14 -75 l-24 -50 5 39 c5 28 3 37 -5 32 -7 -4 -12 -16 -12 -27 0 -23
-49 -123 -56 -116 -3 3 3 35 14 71 11 36 17 66 14 66 -3 0 3 6 14 14 21 16 14
32 -10 23 -19 -8 -46 -69 -36 -81 5 -4 -1 -31 -13 -60 -26 -65 -41 -82 -35
-38 3 17 3 32 1 32 -2 0 -15 -25 -28 -57 -28 -62 -42 -66 -26 -6 6 21 11 41
11 46 0 14 -38 7 -44 -8 -3 -9 0 -15 10 -15 18 0 13 -22 -17 -82 -22 -44 -33
-49 -27 -13 9 45 -7 26 -27 -31 -22 -64 -36 -80 -28 -29 8 49 -1 44 -22 -12
-10 -27 -24 -57 -32 -68 -13 -18 -14 -16 -9 25 6 48 4 45 -34 -44 -26 -64 -34
-55 -15 18 18 70 18 66 -1 66 -9 0 -14 6 -11 13 2 6 16 11 31 9 30 -3 32 1 10
22 -43 44 -52 2 -53 -267 l-2 -237 522 1 c509 1 548 3 569 31 3 4 12 3 20 -3
13 -8 13 -10 0 -19 -10 -6 709 -10 2103 -10 l2118 0 -16 33 c-43 88 -67 117
-286 351 -124 131 -299 329 -299 336 0 4 18 10 41 13 22 3 43 8 46 10 2 3 -10
25 -27 49 l-32 43 39 3 c102 6 125 13 120 33 -5 17 1 19 71 19 43 0 176 7 297
15 121 8 315 19 430 25 335 16 547 30 585 36 35 6 37 4 174 -148 208 -229 386
-411 434 -444 23 -16 44 -38 47 -49 8 -34 35 -261 35 -294 l0 -31 105 0 105 0
-4 998 c-2 548 -4 1008 -4 1022 0 14 2 206 4 427 l4 403 -22 5 c-13 2 -62 12
-110 20 -48 9 -128 29 -179 46 -51 16 -99 27 -106 25 -11 -4 -11 -1 -3 14 9
16 8 20 -5 20 -8 0 -15 -7 -15 -15 0 -18 -16 -20 -23 -2 -7 19 -36 -24 -37
-54 0 -41 -27 -45 -36 -6 -9 42 -15 52 -24 37 -5 -8 -10 -2 -15 19 -3 17 -10
31 -14 31 -4 0 -6 13 -3 29 3 20 -2 35 -17 50 -23 23 -28 67 -8 74 9 3 7 9 -5
24 -10 11 -18 24 -18 29 -1 17 -58 76 -68 70 -6 -3 -13 0 -16 6 -3 7 -3 3 0
-9 7 -28 -7 -29 -31 -3 -13 14 -22 17 -29 10 -7 -7 -3 -15 12 -26 28 -19 28
-48 0 -76 l-21 -21 -22 24 c-12 13 -31 30 -43 37 -20 11 -22 10 -23 -10 -1
-21 -1 -21 -11 5 -5 15 -13 27 -17 27 -17 0 -18 -13 -5 -38 17 -32 20 -67 4
-42 -9 13 -10 13 -10 0 0 -8 -14 9 -30 39 -32 57 -35 65 -22 57 4 -2 8 4 8 15
0 18 -2 18 -12 5 -10 -14 -15 -11 -36 21 -14 21 -28 59 -32 86 -9 70 -38 120
-130 216 -66 69 -85 97 -100 144 -12 35 -38 79 -67 115 -65 77 -176 237 -185
265 -21 68 -164 213 -259 264 -73 38 -243 88 -345 102 -41 6 -106 20 -145 32
-46 13 -106 22 -176 24 -94 3 -120 8 -226 46 l-121 42 2 106 c0 58 6 109 11
114 6 4 4 11 -5 17 -8 5 -10 10 -4 10 13 0 6 59 -8 78 -7 8 -7 12 1 12 6 0 11
9 11 20 0 21 -15 27 -25 10 -3 -5 -12 -7 -20 -4 -9 4 -21 -8 -34 -34 -16 -31
-28 -42 -53 -47 -18 -4 -36 -12 -40 -18 -8 -13 -77 51 -74 67 2 6 1 7 -2 3 -2
-5 -14 1 -27 13 -17 16 -36 21 -81 22 -33 1 -68 7 -79 15 -11 7 -26 13 -34 13
-8 0 -25 9 -37 20 -13 13 -37 22 -63 23 -26 1 -41 6 -41 14 0 17 -16 17 -23
-1 -8 -21 20 -54 53 -61 53 -12 70 -83 25 -103 -20 -10 -33 -9 -62 3 -46 19
-87 19 -107 -1 -9 -8 -16 -11 -16 -5 0 6 -10 7 -27 1 -49 -15 -162 -32 -177
-27 -23 9 -30 64 -12 92 22 34 21 66 -1 58 -48 -16 -121 -55 -147 -77 -16 -15
-35 -26 -41 -26 -7 0 -15 -6 -18 -13 -7 -18 -143 -49 -189 -43 -21 2 -38 1
-38 -2 0 -4 -3 -18 -7 -31 -5 -18 -3 -22 7 -16 10 6 12 1 7 -26 -5 -24 -4 -30
3 -19 7 11 9 -6 7 -56 -1 -56 2 -74 16 -88 9 -10 17 -20 18 -24 5 -40 3 -65
-4 -75 -6 -8 -7 -6 -3 6 3 9 1 17 -4 17 -5 0 -14 15 -21 34 -8 21 -17 32 -26
29 -7 -3 -17 6 -23 22 -13 35 -13 35 7 28 12 -5 15 -2 11 8 -3 8 -13 53 -22
100 -9 46 -19 94 -22 107 -3 14 -12 22 -25 22 -43 0 -59 18 -59 68 -1 41 -18
150 -35 222 -5 20 -2 18 13 -9 l19 -35 -4 51 c-4 34 -1 53 7 58 9 5 10 2 5
-14 -4 -13 -1 -31 8 -45 9 -12 21 -43 29 -67 12 -42 13 -37 19 111 9 237 33
413 61 444 4 6 8 18 8 27 0 9 6 22 13 28 19 15 42 -29 34 -67 -5 -24 -3 -30 9
-28 10 2 25 29 40 71 13 38 24 69 24 70 0 9 38 40 50 40 8 0 14 7 14 16 -1 11
5 14 22 11 16 -3 24 0 24 10 0 21 40 54 82 67 25 8 44 24 59 49 21 35 25 42
28 59 0 4 6 2 13 -5 19 -19 44 -14 58 13 8 15 20 23 27 21 7 -3 23 4 36 17 18
18 90 51 132 61 6 1 19 7 30 13 24 13 122 15 130 3 3 -5 20 -9 38 -8 24 1 42
-8 71 -35 35 -33 79 -107 73 -126 -5 -17 47 -101 63 -101 11 0 26 -18 40 -47
12 -27 29 -56 37 -65 8 -9 12 -21 9 -27 -3 -5 -2 -11 2 -13 4 -1 23 -24 41
-50 17 -27 35 -48 40 -48 4 0 14 -12 21 -26 11 -20 19 -24 38 -19 23 6 23 5 8
-10 -9 -9 -16 -18 -16 -20 0 -13 25 -55 32 -55 5 0 6 -4 3 -10 -3 -5 12 -26
35 -47 22 -20 40 -45 40 -55 0 -10 4 -18 9 -18 4 0 11 -35 15 -77 4 -42 12
-86 18 -97 7 -13 11 -68 10 -139 -1 -85 2 -122 11 -130 17 -16 40 -20 32 -7
-4 6 2 30 13 53 12 23 33 81 47 129 21 72 25 107 25 195 -1 86 3 120 19 165
12 32 21 64 21 73 0 8 4 15 8 15 15 0 27 75 20 125 -4 28 -9 96 -12 151 -5 87
-12 120 -51 230 -62 176 -98 227 -232 331 -24 19 -25 21 -7 17 12 -3 25 -1 28
5 5 7 -2 11 -15 11 -22 0 -22 1 7 31 29 31 29 31 4 23 -14 -4 -35 -8 -47 -9
-15 0 -18 -3 -12 -11 13 -16 -22 -13 -38 3 -15 14 -17 27 -3 18 6 -3 10 -2 10
3 0 5 -10 12 -22 15 -12 4 -19 9 -16 12 3 4 16 1 28 -5 12 -6 24 -9 27 -6 9 9
-8 26 -28 26 -19 0 -27 3 -86 34 -17 9 -38 13 -46 10 -9 -3 -24 -1 -34 5 -15
10 -14 10 8 5 15 -3 29 -1 33 4 7 12 -126 44 -156 37 -12 -3 -54 4 -93 15 -38
11 -81 20 -94 20 -13 0 -32 9 -41 20 -26 30 -82 66 -124 80 -75 25 -232 12
-270 -22 -6 -4 -16 -8 -23 -8 -7 0 -36 -15 -65 -34 -48 -30 -60 -34 -130 -34
-43 -1 -87 -6 -99 -12 -11 -7 -23 -10 -25 -7 -2 2 -6 84 -9 183 -11 382 -14
426 -38 504 -21 71 -23 75 -49 72z m727 -670 c50 -25 91 -67 75 -77 -6 -4 -19
-1 -28 7 -44 36 -180 75 -231 65 -14 -3 -35 -1 -46 3 -19 7 -18 8 5 13 14 4
34 8 45 11 42 10 142 -2 180 -22z m-245 -61 c18 -5 21 -9 10 -13 -24 -8 -63
-3 -68 10 -4 13 18 14 58 3z m100 -2 c0 -7 -26 -19 -41 -19 -5 0 -9 6 -9 13 0
6 11 12 25 12 14 0 25 -3 25 -6z m-568 -87 c7 -7 9 -15 5 -18 -19 -19 -907
-27 -914 -8 -2 6 10 10 29 10 18 0 85 4 148 8 63 4 207 10 320 13 113 2 212 5
220 6 44 7 183 -2 192 -11z m1138 8 c0 -5 -2 -10 -4 -10 -3 0 -8 5 -11 10 -3
6 -1 10 4 10 6 0 11 -4 11 -10z m-2070 -40 c0 -5 -4 -10 -9 -10 -6 0 -13 5
-16 10 -3 6 1 10 9 10 9 0 16 -4 16 -10z m-1058 -15 c15 4 28 2 28 -3 0 -11
-87 -25 -101 -16 -5 3 -9 12 -9 19 0 12 6 12 27 4 14 -5 39 -7 55 -4z m187 1
c9 -11 3 -14 -35 -14 -61 -2 -80 11 -29 19 22 3 43 7 46 8 4 0 12 -5 18 -13z
m89 8 c12 -2 22 -9 22 -15 0 -14 -82 -7 -87 8 -4 12 22 15 65 7z m-469 -10
c60 -10 14 -24 -81 -24 -77 0 -100 6 -84 21 8 7 129 10 165 3z m96 -3 c3 -5 2
-12 -3 -15 -13 -8 -53 5 -46 15 7 12 41 12 49 0z m-287 -13 c-5 -13 -109 -20
-153 -10 -30 6 -30 6 10 13 71 11 147 10 143 -3z m-298 -18 c0 -5 -2 -10 -4
-10 -3 0 -8 5 -11 10 -3 6 -1 10 4 10 6 0 11 -4 11 -10z m2716 -77 c-3 -8 -6
-17 -6 -19 0 -2 -4 -4 -10 -4 -5 0 -10 11 -10 25 0 18 4 23 16 18 8 -3 13 -12
10 -20z m-2258 -79 c7 -2 12 -21 12 -46 0 -32 3 -39 12 -30 9 9 15 9 27 -1 8
-6 12 -7 9 -2 -3 6 6 10 20 11 15 0 266 4 557 8 389 5 531 10 534 19 11 32 53
49 66 27 4 -6 12 -10 18 -8 27 5 87 -13 81 -24 -5 -7 -1 -9 9 -5 10 4 17 1 17
-5 0 -9 3 -9 12 0 15 15 688 17 688 2 0 -5 -8 -11 -17 -11 -17 -1 -17 -2 0 -6
25 -6 21 -23 -5 -23 -18 0 -20 -2 -9 -9 12 -8 9 -11 -14 -17 -24 -6 -26 -9
-12 -19 13 -9 10 -11 -19 -12 -21 -1 -34 4 -34 12 0 20 -81 27 -101 9 -15 -13
-18 -13 -33 1 -13 13 -19 14 -38 3 -13 -7 -27 -13 -33 -14 -41 -4 -85 -18 -85
-28 0 -9 -25 -11 -92 -9 -73 3 -89 1 -75 -7 10 -7 27 -10 38 -7 11 3 16 1 13
-5 -4 -6 2 -8 16 -3 15 5 20 3 16 -3 -4 -7 4 -8 24 -2 30 9 60 4 60 -9 0 -8
-50 -31 -69 -32 -18 0 50 -27 86 -33 27 -5 43 -14 43 -25 0 -9 -101 -57 -113
-53 -5 1 -11 -6 -14 -17 -3 -12 -11 -17 -19 -14 -8 3 -14 0 -14 -7 0 -6 -10
-21 -23 -32 -12 -11 -16 -17 -9 -13 8 4 12 -1 12 -14 0 -16 6 -21 24 -21 14 0
28 -4 31 -10 10 -16 28 -12 21 5 -4 11 -1 13 12 5 20 -11 91 -24 111 -21 11 2
12 -8 8 -46 -10 -80 -12 -88 -22 -95 -6 -5 -6 -8 1 -8 8 0 10 -51 7 -177 -4
-185 -12 -760 -14 -968 -1 -77 -5 -123 -13 -128 -8 -6 -8 -10 2 -14 6 -2 12
-11 12 -19 0 -9 -4 -12 -10 -9 -5 3 -10 0 -10 -8 0 -13 -93 -40 -218 -63 -18
-4 -35 -11 -38 -15 -7 -11 -24 -12 -24 -1 0 5 11 15 24 22 14 7 27 19 30 26 4
10 -2 9 -22 -3 -33 -22 -43 -34 -37 -50 2 -7 -29 -40 -70 -74 -41 -34 -75 -65
-75 -70 0 -5 -36 -53 -79 -107 -44 -54 -83 -111 -87 -126 -3 -14 -15 -32 -25
-40 -10 -7 -30 -38 -43 -68 -14 -31 -30 -59 -36 -63 -6 -3 -8 -11 -5 -16 4 -5
-1 -9 -9 -9 -26 0 -30 -22 -7 -39 21 -16 21 -18 5 -49 -9 -18 -18 -31 -21 -29
-2 3 3 20 13 39 17 32 17 33 -2 18 -10 -8 -22 -19 -25 -24 -9 -12 -31 3 -23
16 4 6 0 14 -7 19 -9 6 -4 7 15 3 21 -5 27 -4 22 5 -4 6 -13 11 -21 11 -8 0
-22 13 -31 30 -19 31 -51 52 -41 25 4 -8 2 -17 -3 -20 -6 -4 -10 1 -10 11 0
13 -3 14 -15 4 -20 -17 -124 -8 -139 12 -6 8 -21 20 -33 27 -19 10 -23 20 -23
61 0 27 5 52 10 55 6 4 10 -6 10 -22 0 -15 4 -23 8 -17 9 13 42 26 42 16 0
-15 53 -5 65 11 8 11 19 15 30 10 11 -4 16 -3 12 4 -4 6 6 10 23 11 28 1 91
36 98 55 11 24 86 95 97 91 8 -4 16 6 20 28 4 18 24 58 45 88 47 70 100 174
100 197 -1 16 -2 16 -12 -2 -6 -11 -17 -24 -25 -28 -7 -4 -13 -15 -13 -22 0
-8 -4 -15 -8 -15 -5 0 -15 -12 -23 -27 -16 -30 -49 -71 -98 -122 -19 -20 -57
-62 -85 -95 -28 -32 -60 -63 -71 -68 -11 -5 -31 -15 -45 -23 -42 -23 -111 -27
-127 -7 -12 15 -14 16 -25 1 -13 -16 -43 -15 -32 2 3 5 -11 9 -30 9 -19 0 -38
5 -41 10 -4 7 7 10 30 8 20 -1 38 -5 41 -9 2 -4 19 -6 37 -4 17 3 62 7 100 11
37 3 65 9 62 14 -3 5 11 18 30 30 19 12 35 23 35 25 0 8 -104 -25 -110 -36 -6
-8 -35 -10 -96 -7 -95 5 -198 41 -210 73 -3 8 -14 15 -23 16 -11 0 -10 3 6 9
25 10 31 36 35 152 2 49 7 88 11 88 5 0 5 9 2 20 -4 12 -2 20 5 20 7 0 5 6 -4
16 -20 20 -22 41 -2 25 11 -9 16 -9 21 0 4 6 2 15 -5 19 -7 4 -9 13 -6 19 4 6
12 8 18 5 7 -5 9 2 4 20 -5 20 -4 26 5 20 9 -5 10 0 5 20 -4 15 -2 26 4 26 6
0 8 11 4 26 -5 19 -3 25 4 20 7 -4 14 4 17 21 4 15 10 36 15 45 7 12 5 22 -6
33 -15 15 -15 17 1 29 13 9 16 22 13 44 -2 18 -1 32 4 32 13 0 9 28 -4 32 -9
3 -8 10 5 23 10 9 17 27 15 39 -1 11 1 26 5 32 4 7 0 14 -8 17 -9 4 -12 1 -8
-9 3 -8 -1 -14 -11 -14 -17 0 -21 26 -7 49 5 7 13 11 19 7 6 -4 8 2 5 14 -4
14 0 20 11 20 9 0 16 4 16 9 0 6 -9 8 -20 6 -13 -2 -20 2 -20 11 0 8 -6 14
-14 14 -8 0 -16 7 -20 15 -6 17 -26 20 -26 4 0 -5 4 -8 9 -4 5 3 12 -3 16 -14
3 -11 12 -22 20 -25 12 -4 13 -10 3 -31 -6 -14 -15 -25 -19 -25 -8 0 -23 49
-20 70 1 11 0 12 -6 3 -5 -7 -18 -10 -30 -7 -19 5 -20 8 -8 52 7 26 17 46 24
45 6 -2 11 2 11 7 0 6 -4 10 -10 10 -18 0 -11 18 9 25 13 4 18 12 15 23 -5 14
-2 13 12 -3 l17 -20 -8 20 c-12 29 -10 72 5 101 16 29 50 33 50 5 0 -11 5 -23
11 -26 5 -4 9 -21 7 -37 -2 -23 1 -31 15 -34 22 -3 34 40 17 61 -6 8 -10 20
-7 27 4 8 6 7 6 -4 1 -10 6 -18 12 -18 6 0 8 9 4 20 -4 12 -2 20 5 20 7 0 9 8
5 20 -4 12 -2 20 5 20 7 0 9 8 5 20 -5 15 -3 18 9 14 12 -5 15 -2 10 10 -6 17
-44 18 -56 1 -12 -15 -10 7 2 25 5 8 10 10 10 4 0 -15 58 -5 64 12 3 9 -1 14
-12 14 -15 1 -15 2 2 15 10 7 15 18 11 24 -3 6 -1 11 4 11 6 0 10 3 9 8 -1 4
4 19 10 34 6 15 9 35 5 44 -5 14 -2 14 28 -2 44 -23 142 -36 135 -17 -3 7 -1
15 4 18 6 4 10 2 10 -4 0 -6 7 -8 15 -5 12 5 13 10 4 20 -17 20 -6 17 21 -6
25 -22 61 -26 90 -10 15 8 18 7 14 -3 -3 -10 4 -14 25 -15 18 0 32 5 35 15 5
12 9 13 21 3 13 -11 18 -10 30 6 8 11 14 14 15 7 0 -7 7 -13 15 -13 8 0 14 5
12 11 -1 6 4 14 12 17 8 3 11 0 7 -7 -4 -6 -3 -11 3 -11 5 0 12 4 15 9 3 4 19
11 36 14 22 5 28 10 23 23 -5 13 -2 15 18 10 20 -6 21 -5 6 4 -9 6 -21 9 -25
6 -4 -2 -14 -1 -22 5 -12 7 -12 9 3 9 14 0 16 4 8 17 -6 12 -5 26 5 45 12 24
12 27 -1 22 -8 -3 -17 -21 -21 -40 -3 -19 -10 -34 -14 -34 -5 0 -5 14 0 31 5
18 7 35 5 39 -4 6 19 18 47 24 13 2 20 15 13 25 -4 8 -12 6 -22 -5 -12 -11
-18 -12 -23 -4 -6 9 -9 9 -15 0 -4 -6 -13 -9 -20 -6 -7 2 -16 2 -19 -1 -3 -4
-18 -8 -33 -9 -16 -2 -36 -13 -45 -25 -14 -17 -18 -18 -18 -5 0 9 -7 16 -16
16 -8 0 -12 -4 -9 -10 3 -5 1 -10 -4 -10 -6 0 -11 4 -11 9 0 4 -12 7 -27 5
-16 -2 -75 -4 -133 -5 -111 -2 -159 10 -196 49 -10 11 -29 23 -41 26 -22 7
-23 4 -23 -38 0 -25 1 -48 3 -49 1 -2 -3 -10 -9 -18 -6 -8 -17 -36 -24 -64 -7
-27 -17 -55 -22 -62 -6 -7 -4 -14 3 -19 7 -4 18 1 27 12 14 18 14 18 9 -3 -3
-13 -2 -23 2 -23 12 0 12 -78 0 -86 -8 -5 -8 -9 1 -14 7 -4 8 -10 3 -13 -21
-13 -35 12 -36 62 -1 65 -20 67 -37 4 -7 -27 -19 -61 -26 -78 -7 -16 -22 -55
-34 -86 -11 -30 -26 -63 -33 -72 -11 -15 -12 -14 -13 14 -1 20 2 26 7 17 6 -9
9 -5 9 13 0 14 3 29 7 32 12 13 81 227 72 227 -5 0 -9 7 -9 15 0 8 6 15 13 15
23 0 66 135 45 142 -16 6 9 98 29 105 8 3 13 22 13 50 0 31 4 43 13 40 6 -2
12 -14 11 -26 0 -14 5 -21 18 -21 10 0 18 5 18 11 0 5 -4 7 -10 4 -5 -3 -10 3
-10 14 0 11 -9 25 -20 31 -11 6 -18 15 -16 19 5 8 -36 31 -54 31 -6 0 -10 -6
-10 -14 0 -7 -7 -19 -15 -26 -10 -9 -12 -16 -5 -20 6 -4 5 -13 -5 -26 -14 -18
-15 -18 -12 5 2 23 1 23 -84 22 -67 -2 -88 1 -99 13 -7 9 -19 16 -26 16 -8 0
-14 7 -14 15 0 8 -4 15 -10 15 -5 0 -10 -4 -10 -9 0 -4 -11 -6 -24 -4 -13 3
-27 0 -30 -6 -5 -7 -1 -9 8 -5 10 4 16 1 16 -8 0 -34 -22 -38 -192 -38 -153 0
-189 6 -158 25 14 9 12 25 -2 25 -7 0 -26 10 -42 23 -27 22 -29 28 -34 119 -5
115 1 150 26 142 12 -4 11 -1 -5 13 -13 10 -22 28 -21 40 2 22 14 23 66 7z
m2087 -64 c3 -5 -1 -10 -10 -10 -9 0 -13 5 -10 10 3 6 8 10 10 10 2 0 7 -4 10
-10z m-158 -76 c-3 -3 -12 -4 -19 -1 -8 3 -5 6 6 6 11 1 17 -2 13 -5z m-120
-36 c-3 -7 -5 -2 -5 12 0 14 2 19 5 13 2 -7 2 -19 0 -25z m270 26 c-3 -3 -12
-4 -19 -1 -8 3 -5 6 6 6 11 1 17 -2 13 -5z m-417 -94 c0 -5 -2 -10 -4 -10 -3
0 -8 5 -11 10 -3 6 -1 10 4 10 6 0 11 -4 11 -10z m370 -33 c13 4 13 3 0 -5 -8
-5 -35 -7 -60 -4 -38 4 -41 6 -20 12 14 4 34 4 45 0 11 -4 27 -5 35 -3z m683
-2 c-3 -9 -8 -14 -10 -11 -3 3 -2 9 2 15 9 16 15 13 8 -4z m-779 -54 c16 -6
17 -9 5 -13 -17 -6 -96 6 -106 16 -9 9 78 6 101 -3z m-284 -39 c0 -4 -5 -13
-10 -18 -12 -12 -3 -44 11 -44 5 0 9 -4 9 -8 0 -5 -7 -9 -15 -9 -8 0 -15 8
-15 18 0 9 -7 19 -15 23 -13 5 -13 8 2 25 19 21 33 26 33 13z m-1027 -52 c3
-11 1 -20 -4 -20 -5 0 -9 -12 -9 -26 0 -15 -4 -23 -11 -18 -6 3 -23 -6 -39
-21 -16 -15 -33 -24 -38 -21 -6 3 -13 -2 -15 -11 -3 -11 -5 -8 -4 7 0 14 -11
46 -25 72 -30 55 -30 55 73 57 59 1 67 -1 72 -19z m982 -20 c-9 -15 -25 -2
-25 21 0 19 1 19 16 5 8 -9 12 -20 9 -26z m-35 0 c0 -5 -4 -10 -10 -10 -5 0
-10 5 -10 10 0 6 5 10 10 10 6 0 10 -4 10 -10z m120 -4 c0 -3 -4 -8 -10 -11
-5 -3 -10 -1 -10 4 0 6 5 11 10 11 6 0 10 -2 10 -4z m201 -46 c9 12 9 11 3 -5
-7 -16 -13 -239 -14 -557 0 -34 -4 -58 -11 -58 -6 0 -8 9 -4 20 4 12 2 20 -5
20 -7 0 -10 8 -7 20 3 12 0 20 -6 20 -17 -1 -43 -23 -42 -37 0 -20 16 -28 25
-13 6 9 13 -3 25 -44 12 -41 21 -56 31 -52 8 3 14 1 14 -3 0 -5 -7 -11 -15
-15 -23 -8 -18 -25 6 -21 13 3 19 0 16 -8 -2 -7 -12 -11 -21 -11 -9 1 -16 -4
-16 -12 0 -8 -3 -13 -7 -13 -19 3 -33 -2 -33 -11 0 -13 37 -7 52 8 36 36 45 8
55 -158 5 -98 4 -113 -8 -104 -11 9 -17 9 -27 -2 -11 -12 -10 -14 5 -15 10 -1
21 -1 24 -1 4 1 9 -28 13 -64 8 -76 -3 -216 -15 -208 -5 3 -9 -4 -9 -16 0 -12
5 -18 10 -15 6 3 10 2 10 -4 0 -5 -6 -12 -12 -14 -10 -4 -10 -7 0 -14 9 -7 3
-14 -22 -25 -20 -10 -37 -13 -42 -8 -14 14 -54 0 -47 -16 7 -18 -4 -18 -22 0
-11 10 -11 16 -2 25 9 9 9 14 -2 20 -7 5 -10 14 -7 20 4 6 0 11 -8 11 -11 0
-16 9 -16 29 0 23 6 30 25 35 32 8 24 26 -8 19 -12 -3 -18 -1 -12 4 6 4 10 26
11 48 0 22 5 93 9 158 7 104 10 117 27 117 10 0 18 5 18 11 0 6 -9 9 -20 6
-16 -4 -20 0 -20 20 0 14 8 32 18 40 16 14 16 14 -4 10 -18 -4 -21 1 -21 29 0
24 5 34 16 34 14 1 14 2 0 10 -15 9 -17 33 -16 205 1 123 6 195 12 195 5 0 4
4 -4 9 -10 6 -12 21 -8 50 3 23 2 39 -1 37 -4 -2 -8 27 -10 66 -2 58 0 72 15
84 17 13 17 13 1 14 -15 0 -18 10 -18 58 0 60 12 84 36 75 8 -3 14 0 14 5 0 7
13 4 30 -6 27 -15 32 -15 41 -2z m149 -24 c0 -3 -7 -3 -15 0 -8 4 -15 13 -15
21 0 12 2 12 15 -1 8 -8 15 -17 15 -20z m-1256 -33 c3 -8 3 -25 0 -39 -5 -20
-9 -22 -25 -13 -19 10 -24 34 -13 63 7 17 30 11 38 -11z m1141 -13 c3 -5 -1
-10 -10 -10 -9 0 -13 5 -10 10 3 6 8 10 10 10 2 0 7 -4 10 -10z m76 -4 c5 3 9
-1 9 -9 0 -7 -11 -19 -24 -25 -22 -10 -24 -9 -21 9 6 29 18 46 23 31 2 -7 8
-10 13 -6z m-691 -6 c0 -5 -5 -10 -11 -10 -5 0 -7 5 -4 10 3 6 8 10 11 10 2 0
4 -4 4 -10z m-840 -9 c0 -12 -20 -25 -27 -18 -7 7 6 27 18 27 5 0 9 -4 9 -9z
m677 -27 c15 5 18 0 18 -29 0 -18 -6 -40 -12 -46 -7 -7 -13 -19 -13 -26 0 -7
-11 -15 -25 -19 -14 -3 -25 -10 -25 -15 0 -5 -7 -9 -15 -9 -8 0 -15 4 -15 9 0
5 -9 11 -20 14 -15 4 -20 14 -20 36 0 21 -5 31 -15 31 -9 0 -15 9 -14 23 1 16
2 18 6 5 5 -22 17 -23 32 -4 7 8 26 18 42 21 16 4 29 11 29 17 0 7 5 6 15 -2
8 -6 22 -9 32 -6z m773 -4 c9 -16 8 -20 -5 -20 -8 0 -15 9 -15 20 0 11 2 20 5
20 2 0 9 -9 15 -20z m-640 6 c0 -3 -4 -8 -10 -11 -5 -3 -10 -1 -10 4 0 6 5 11
10 11 6 0 10 -2 10 -4z m30 -11 c0 -8 -4 -15 -10 -15 -5 0 -7 7 -4 15 4 8 8
15 10 15 2 0 4 -7 4 -15z m-717 -52 c4 -31 2 -53 -3 -53 -6 0 -10 26 -10 57 0
68 5 67 13 -4z m311 47 c14 -5 26 -14 26 -20 0 -6 -4 -9 -9 -5 -6 3 -6 -7 -1
-27 6 -17 7 -34 5 -37 -3 -2 -5 1 -5 7 0 7 -4 12 -10 12 -5 0 -10 -9 -10 -20
0 -11 -7 -20 -15 -20 -8 0 -15 -4 -15 -10 0 -5 -5 -10 -11 -10 -5 0 -7 5 -4
10 4 6 2 16 -3 23 -17 20 -12 86 7 97 20 12 15 12 45 0z m336 -20 c0 -5 -5
-10 -11 -10 -5 0 -7 5 -4 10 3 6 8 10 11 10 2 0 4 -4 4 -10z m2 -42 c-7 -7
-12 -8 -12 -2 0 14 12 26 19 19 2 -3 -1 -11 -7 -17z m38 7 c-7 -9 -15 -13 -17
-11 -7 7 7 26 19 26 6 0 6 -6 -2 -15z m36 0 c-5 -14 6 -20 29 -15 6 1 5 -4 -1
-10 -9 -9 -17 -9 -32 1 -20 12 -20 39 0 39 6 0 8 -7 4 -15z m-111 -5 c3 -5 1
-10 -4 -10 -6 0 -11 5 -11 10 0 6 2 10 4 10 3 0 8 -4 11 -10z m-210 -20 c-3
-5 -12 -10 -18 -10 -7 0 -6 4 3 10 19 12 23 12 15 0z m177 -12 c-7 -7 -12 -8
-12 -2 0 14 12 26 19 19 2 -3 -1 -11 -7 -17z m48 2 c0 -5 -2 -10 -4 -10 -3 0
-8 5 -11 10 -3 6 -1 10 4 10 6 0 11 -4 11 -10z m50 6 c0 -2 -7 -7 -16 -10 -8
-3 -12 -2 -9 4 6 10 25 14 25 6z m735 -46 c-3 -5 -1 -10 4 -10 6 0 11 6 11 13
0 8 4 7 10 -3 7 -11 4 -16 -13 -20 -19 -5 -22 -12 -21 -53 0 -55 17 -69 20
-17 3 49 3 50 14 50 13 0 45 -63 34 -67 -28 -10 -36 -21 -27 -38 7 -12 13 -14
17 -6 11 17 26 13 26 -7 0 -11 -11 -24 -25 -30 -21 -10 -23 -9 -18 6 6 15 5
15 -10 3 -11 -9 -17 -10 -17 -2 0 16 -25 14 -40 -4 -7 -8 -17 -15 -23 -15 -5
0 -2 9 8 20 17 19 17 20 0 26 -16 7 -16 8 5 16 17 6 20 11 11 22 -6 7 -8 16
-5 19 7 7 15 46 17 85 1 12 8 22 15 22 7 0 10 -4 7 -10z m-79 -27 c-10 -10
-19 5 -10 18 6 11 8 11 12 0 2 -7 1 -15 -2 -18z m24 -46 c10 -4 8 -6 -7 -6
-12 -1 -24 3 -27 8 -7 11 6 24 13 13 3 -5 13 -12 21 -15z m-25 -57 c3 -5 1
-10 -4 -10 -6 0 -11 5 -11 10 0 6 2 10 4 10 3 0 8 -4 11 -10z m-1272 -52 c-22
-45 -26 -48 -17 -13 8 37 13 45 24 45 5 0 1 -15 -7 -32z m1277 1 c0 -5 -7 -9
-15 -9 -15 0 -20 12 -9 23 8 8 24 -1 24 -14z m140 -34 c-15 -18 -46 -20 -56
-3 -4 7 -3 8 4 4 7 -4 20 -2 29 3 26 15 37 13 23 -4z m-1370 -25 c0 -10 -9
-24 -19 -30 -25 -13 -31 -13 -31 1 0 5 5 7 10 4 6 -3 10 -1 10 5 0 6 5 8 12 4
8 -5 9 0 6 14 -4 12 -2 22 3 22 5 0 9 -9 9 -20z m1394 -118 c3 -6 2 -13 -4
-17 -5 -3 -10 -24 -10 -46 0 -51 -13 -75 -51 -95 -17 -8 -28 -11 -24 -5 4 7
-6 14 -24 17 -32 7 -39 22 -19 42 9 9 6 12 -15 12 -32 0 -37 25 -7 33 33 8 25
37 -10 37 -19 0 -30 5 -30 14 0 21 21 31 30 16 6 -9 12 -6 24 13 11 16 23 23
36 20 14 -4 19 1 22 24 3 24 7 28 31 26 15 -1 28 4 28 10 1 7 5 -11 9 -39 4
-29 10 -57 14 -62z m-159 58 c-3 -5 0 -10 7 -10 9 0 9 -3 -2 -10 -24 -16 -40
-12 -40 10 0 14 7 20 21 20 11 0 17 -4 14 -10z m-1245 -50 c0 -5 -4 -10 -10
-10 -5 0 -10 5 -10 10 0 6 5 10 10 10 6 0 10 -4 10 -10z m3110 -12 c0 -16 -3
-19 -11 -11 -6 6 -8 16 -5 22 11 17 16 13 16 -11z m-3324 -16 c22 -15 23 -42
2 -62 -26 -24 -54 -26 -62 -4 -18 46 23 92 60 66z m1414 -12 c0 -5 -5 -10 -11
-10 -5 0 -7 5 -4 10 3 6 8 10 11 10 2 0 4 -4 4 -10z m95 -150 c-3 -5 -11 -10
-16 -10 -6 0 -7 5 -4 10 3 6 11 10 16 10 6 0 7 -4 4 -10z m-1541 -18 c3 -5 -1
-9 -9 -9 -8 0 -12 4 -9 9 3 4 7 8 9 8 2 0 6 -4 9 -8z m1671 -42 c-3 -5 -12
-10 -18 -10 -7 0 -6 4 3 10 19 12 23 12 15 0z m-41 -26 c9 -3 16 -15 16 -26 0
-17 -5 -20 -30 -16 -23 3 -30 1 -26 -9 3 -8 -2 -13 -13 -13 -10 0 -22 7 -25
16 -8 20 -8 19 27 28 18 4 27 2 27 -5 0 -7 3 -9 6 -6 4 4 1 13 -6 22 -13 16
-3 20 24 9z m25 -70 c-15 -19 -18 -56 -5 -65 12 -9 -2 -61 -14 -54 -6 3 -7 -1
-4 -9 3 -9 1 -16 -5 -16 -6 0 -11 4 -11 9 0 5 -3 16 -6 24 -3 9 0 14 8 14 7
-1 13 3 14 8 0 6 -8 8 -19 7 -17 -3 -19 1 -15 27 2 16 1 28 -4 25 -4 -3 -8 2
-8 10 0 21 18 30 35 16 11 -9 16 -7 25 10 6 12 14 19 17 16 3 -3 0 -13 -8 -22z
m-1592 -6 c-3 -8 -6 -5 -6 6 -1 11 2 17 5 13 3 -3 4 -12 1 -19z m1473 7 c0 -8
-4 -15 -10 -15 -5 0 -10 7 -10 15 0 8 5 15 10 15 6 0 10 -7 10 -15z m-1360 -5
c0 -5 -2 -10 -4 -10 -3 0 -8 5 -11 10 -3 6 -1 10 4 10 6 0 11 -4 11 -10z
m1550 -30 c5 0 7 -7 4 -15 -11 -28 -24 -15 -23 23 1 23 3 28 6 15 2 -13 8 -23
13 -23z m-1600 20 c0 -5 -4 -10 -10 -10 -5 0 -10 5 -10 10 0 6 5 10 10 10 6 0
10 -4 10 -10z m2139 -40 c4 0 24 -16 45 -35 25 -23 48 -35 67 -35 16 0 29 -5
29 -11 0 -6 11 -20 25 -31 31 -24 34 -58 5 -58 -11 0 -28 -4 -38 -9 -24 -14
-173 -45 -198 -42 -19 2 -22 -3 -21 -33 1 -19 5 -32 9 -30 4 3 8 0 8 -5 0 -17
14 -13 39 10 13 12 30 19 42 16 10 -3 21 -2 23 2 3 4 22 6 43 5 120 -8 140
-41 22 -36 l-74 2 32 -27 c39 -35 50 -68 27 -81 -13 -7 -14 -13 -6 -28 7 -13
7 -24 0 -38 -9 -16 -6 -24 18 -42 l28 -23 -29 -12 c-25 -10 -27 -13 -11 -17
11 -2 23 3 28 12 9 17 50 13 75 -6 7 -5 21 -7 31 -4 21 7 72 -12 72 -26 0 -12
34 -10 49 5 8 6 11 7 8 1 -3 -6 3 -18 14 -27 23 -20 25 -37 3 -37 -8 0 -22 -6
-30 -14 -9 -10 -31 -14 -67 -12 -28 2 -57 -1 -64 -6 -6 -5 -45 -11 -86 -14
-89 -5 -128 11 -166 69 -15 23 -32 37 -45 37 -17 0 -18 2 -7 9 12 8 12 12 2
24 -6 8 -18 55 -25 104 -7 49 -18 99 -24 110 -7 12 -7 24 -2 29 6 6 5 15 -1
24 -8 11 -12 12 -16 3 -9 -23 -21 -14 -29 20 -10 41 -7 70 12 129 14 42 20 49
54 58 24 7 47 23 65 46 17 22 33 33 42 30 8 -3 18 -6 22 -6z m-2169 -13 c0 -7
-9 -13 -20 -13 -25 0 -26 13 -2 19 9 3 18 5 20 6 1 0 2 -5 2 -12z m1450 -13
c0 -17 -22 -14 -28 4 -2 7 3 12 12 12 9 0 16 -7 16 -16z m-1453 -35 c-17 -10
-12 -50 7 -46 6 1 10 -6 8 -15 -2 -10 2 -26 7 -36 8 -15 5 -22 -14 -32 -13 -7
-22 -17 -19 -22 3 -4 -2 -8 -10 -8 -10 0 -16 10 -17 25 -5 104 -5 111 14 132
11 12 24 20 30 16 5 -3 3 -9 -6 -14z m1459 -14 c14 -13 13 -15 -5 -15 -12 0
-21 6 -21 15 0 8 3 15 6 15 3 0 12 -7 20 -15z m184 -11 c0 -8 -4 -12 -10 -9
-5 3 -10 13 -10 21 0 8 5 12 10 9 6 -3 10 -13 10 -21z m-1580 6 c0 -5 -7 -7
-15 -4 -8 4 -15 8 -15 10 0 2 7 4 15 4 8 0 15 -4 15 -10z m-300 -65 c0 -5 -5
-3 -10 5 -5 8 -10 20 -10 25 0 6 5 3 10 -5 5 -8 10 -19 10 -25z m1740 25 c0
-5 -5 -10 -11 -10 -5 0 -7 5 -4 10 3 6 8 10 11 10 2 0 4 -4 4 -10z m-1620 -16
c0 -2 -7 -4 -15 -4 -8 0 -15 4 -15 10 0 5 7 7 15 4 8 -4 15 -8 15 -10z m160
-64 c0 -5 -5 -10 -11 -10 -5 0 -7 5 -4 10 3 6 8 10 11 10 2 0 4 -4 4 -10z
m-35 -40 c3 -5 1 -10 -4 -10 -6 0 -11 5 -11 10 0 6 2 10 4 10 3 0 8 -4 11 -10z
m1545 -3 c0 -4 -4 -5 -10 -2 -19 11 -10 -14 11 -34 22 -20 19 -41 -7 -41 -8 0
-14 9 -14 21 0 12 -5 19 -12 16 -7 -2 -13 -13 -13 -24 0 -12 -3 -25 -7 -29 -5
-4 -8 8 -8 27 0 19 -3 43 -6 55 -5 17 -1 20 30 20 20 0 36 -4 36 -9z m30 -7
c0 -5 -4 -10 -10 -10 -5 0 -10 5 -10 10 0 6 5 10 10 10 6 0 10 -4 10 -10z m12
-32 c-7 -7 -12 -8 -12 -2 0 6 3 14 7 17 3 4 9 5 12 2 2 -3 -1 -11 -7 -17z
m-1752 -102 c0 -2 -7 -6 -15 -10 -8 -3 -15 -1 -15 4 0 6 7 10 15 10 8 0 15 -2
15 -4z m3 -156 c-3 -12 -8 -19 -11 -16 -5 6 5 36 12 36 2 0 2 -9 -1 -20z
m2139 -175 c3 -13 2 -22 -2 -20 -11 7 -20 45 -10 45 4 0 10 -11 12 -25z
m-1978 -111 c18 -7 12 -24 -10 -24 -8 0 -14 7 -14 15 0 17 2 18 24 9z m-230
-50 c3 -8 2 -12 -4 -9 -6 3 -10 10 -10 16 0 14 7 11 14 -7z m-33 -31 c-12 -20
-14 -14 -5 12 4 9 9 14 11 11 3 -2 0 -13 -6 -23z m309 -35 c0 -5 -5 -8 -11 -8
-8 0 -8 -4 0 -14 9 -11 9 -15 -1 -18 -10 -4 -10 -9 2 -23 14 -17 13 -18 -2
-12 -10 3 -18 2 -18 -3 0 -6 5 -10 10 -10 6 0 10 -4 10 -10 0 -5 -7 -7 -15 -4
-8 4 -15 1 -15 -5 0 -6 3 -11 8 -11 4 0 19 -10 33 -22 28 -26 102 -68 118 -68
6 0 8 7 5 15 -4 8 -1 15 5 15 10 0 15 -13 13 -31 -1 -3 10 -11 24 -18 19 -8
24 -8 18 1 -5 8 -2 9 9 5 9 -3 19 -2 22 3 4 6 -2 10 -11 10 -14 0 -15 3 -7 11
9 9 22 4 50 -19 22 -17 51 -36 65 -43 15 -6 29 -22 33 -36 3 -13 10 -21 14
-18 13 8 -16 -110 -38 -153 -10 -20 -22 -52 -26 -69 -4 -19 -13 -33 -21 -33
-16 0 -166 -55 -199 -73 -56 -31 -79 -40 -114 -44 -38 -5 -38 -5 -44 33 -10
59 -8 134 3 134 5 0 7 13 4 30 -4 17 -2 30 3 30 5 0 8 15 5 33 l-4 32 64 -63
c62 -60 64 -62 87 -46 15 11 21 23 18 36 -5 17 -2 18 24 13 38 -9 41 20 3 29
-17 5 -24 12 -20 22 3 8 -2 30 -11 49 -16 34 -19 35 -67 33 -49 -1 -50 -2 -9
-5 23 -2 47 -11 54 -19 14 -18 22 -94 9 -94 -5 0 -7 -7 -3 -16 5 -14 -11 -33
-29 -34 -3 0 -32 23 -62 51 -81 74 -74 89 21 45 28 -13 54 -22 57 -19 7 7 -38
43 -53 43 -7 0 -28 7 -49 16 -36 16 -37 17 -12 24 23 7 23 8 3 9 -30 1 -36 15
-39 91 -1 36 -3 70 -4 75 -1 6 -2 20 -1 33 1 19 5 22 22 17 18 -6 20 -4 14 17
-4 15 -3 19 3 10 12 -17 24 53 15 86 -5 22 -4 23 16 11 11 -8 21 -17 21 -21z
m-50 12 c0 -5 -5 -10 -11 -10 -5 0 -7 5 -4 10 3 6 8 10 11 10 2 0 4 -4 4 -10z
m85 -60 c0 -28 -5 -47 -11 -47 -7 0 -12 19 -12 47 0 28 5 47 12 47 6 0 11 -19
11 -47z m-93 8 c-9 -9 -12 -7 -12 12 0 19 3 21 12 12 9 -9 9 -15 0 -24z m-452
-24 c0 -8 -5 -12 -10 -9 -6 4 -8 11 -5 16 9 14 15 11 15 -7z m530 -54 c0 -5 7
-7 15 -4 8 4 15 4 15 1 0 -13 -30 -14 -40 -1 -9 10 -9 14 -1 14 6 0 11 -4 11
-10z m45 -29 c3 -5 1 -12 -4 -15 -5 -3 -11 1 -15 9 -6 16 9 21 19 6z m115 -41
c0 -5 -2 -10 -4 -10 -3 0 -8 5 -11 10 -3 6 -1 10 4 10 6 0 11 -4 11 -10z m130
-8 c0 -4 -14 -8 -30 -9 -17 -1 -30 1 -30 6 0 4 14 8 30 9 17 0 30 -2 30 -6z
m-15 -32 c3 -5 1 -10 -4 -10 -6 0 -11 5 -11 10 0 6 2 10 4 10 3 0 8 -4 11 -10z
m-85 -412 c0 7 12 11 29 10 l29 -2 -6 -81 c-2 -44 -8 -88 -12 -99 -6 -18 -8
-17 -31 5 -21 22 -30 24 -77 18 -29 -4 -63 -14 -77 -23 -34 -22 -48 -20 -42 5
5 18 2 20 -19 16 -13 -2 -27 -1 -29 3 -6 10 61 23 84 15 24 -7 51 33 51 77 0
23 7 38 23 48 39 26 52 28 65 12 7 -10 12 -11 12 -4z m4770 -144 c0 -8 -19
-13 -24 -6 -3 5 1 9 9 9 8 0 15 -2 15 -3z m-5354 -46 c4 -7 3 -8 -4 -4 -9 5
-12 -19 -12 -88 0 -67 4 -96 12 -96 6 0 9 -2 7 -4 -4 -4 -281 -19 -539 -30
l-85 -3 45 20 c24 11 71 30 105 42 122 45 388 147 419 161 39 17 43 17 52 2z
m544 -8 c0 -5 -7 -10 -15 -10 -8 0 -15 5 -15 10 0 6 7 10 15 10 8 0 15 -4 15
-10z m77 -22 c-3 -8 -6 -5 -6 6 -1 11 2 17 5 13 3 -3 4 -12 1 -19z m5069 -155
c-10 -10 -19 5 -10 18 6 11 8 11 12 0 2 -7 1 -15 -2 -18z m-5156 -116 c0 -2
-7 -27 -15 -55 -14 -47 -17 -51 -35 -40 -10 7 -21 20 -23 30 -3 10 -10 18 -17
18 -6 0 -8 -6 -4 -12 5 -9 4 -10 -3 -3 -6 6 -14 20 -17 32 -7 20 -3 22 46 26
29 2 56 4 61 5 4 1 7 1 7 -1z m3436 -457 c8 0 14 -9 14 -20 0 -11 -7 -20 -15
-20 -8 0 -15 -4 -15 -8 0 -20 25 -29 65 -24 42 4 44 3 51 -24 4 -15 2 -45 -3
-67 -10 -35 -8 -41 14 -64 26 -25 46 -86 38 -113 -3 -9 4 -33 14 -54 23 -44
18 -99 -11 -130 -17 -18 -22 -31 -20 -48 1 -3 -5 -9 -14 -12 -8 -3 -13 -2 -10
2 3 5 -70 -11 -162 -35 -140 -36 -184 -43 -272 -44 -69 -1 -105 2 -108 10 -2
6 -10 11 -17 11 -8 0 -18 6 -22 13 -4 8 -15 16 -24 19 -9 4 -51 77 -94 165
-43 87 -87 172 -99 188 -11 17 -14 25 -5 18 15 -13 120 -3 170 15 13 5 48 8
76 8 35 -1 54 3 58 12 3 7 8 11 13 8 4 -2 26 4 49 14 23 10 44 16 47 13 3 -3
12 0 20 6 8 7 19 10 24 7 18 -11 72 15 72 35 0 10 -7 20 -15 20 -8 1 -19 3
-25 4 -5 1 -18 3 -27 4 -23 3 40 26 95 36 26 4 42 12 42 21 0 8 5 14 11 14 6
0 17 7 26 16 9 8 22 13 30 10 8 -3 21 -6 29 -6z m-211 -139 c-3 -6 -11 -11
-16 -11 -5 0 -4 6 3 14 14 16 24 13 13 -3z m-3465 -521 c0 -5 -5 -10 -11 -10
-5 0 -7 5 -4 10 3 6 8 10 11 10 2 0 4 -4 4 -10z m-1150 -287 c0 -10 -32 -43
-42 -43 -5 0 -1 11 9 25 17 23 33 32 33 18z m629 -17 c-2 -2 -22 -7 -44 -10
l-40 -5 40 13 c36 12 55 13 44 2z m-224 -15 c-6 -5 -28 -12 -50 -15 l-40 -6
45 14 c57 18 56 18 45 7z m-255 -42 c-30 -11 -59 -18 -65 -15 -11 4 81 35 105
35 8 0 -10 -9 -40 -20z m470 6 c-30 -8 -68 -14 -85 -14 -21 1 -14 5 25 14 77
17 131 17 60 0z m-180 -4 c-21 -12 -161 -43 -167 -37 -3 3 8 8 23 11 16 4 49
13 74 20 54 16 93 19 70 6z m-220 -25 c0 -2 -26 -13 -57 -24 -32 -11 -66 -23
-75 -27 -10 -4 -18 -3 -18 2 0 6 30 19 68 31 71 22 82 24 82 18z m235 -15 c-6
-6 -41 -12 -80 -16 -79 -6 -77 0 5 14 78 12 86 13 75 2z m235 -10 c0 -19 -162
-29 -190 -11 -11 7 -5 9 20 7 28 -3 127 5 163 12 4 0 7 -3 7 -8z m-413 -17
c-3 -3 -12 -4 -19 -1 -8 3 -5 6 6 6 11 1 17 -2 13 -5z m-327 -24 c0 -5 -5 -10
-11 -10 -5 0 -7 5 -4 10 3 6 8 10 11 10 2 0 4 -4 4 -10z m528 4 c-9 -8 -158
-33 -198 -33 -79 1 47 26 184 37 11 1 17 -1 14 -4z m-277 -20 c-43 -13 -157
-29 -136 -19 16 8 138 33 160 33 11 0 0 -6 -24 -14z m245 -39 c-26 -7 -83 -16
-125 -19 -60 -4 -67 -3 -36 4 107 25 242 37 161 15z m-216 -5 c-14 -4 -34 -8
-45 -8 -16 0 -15 2 5 8 14 4 34 8 45 8 16 0 15 -2 -5 -8z m-77 -17 c-7 -2 -19
-2 -25 0 -7 3 -2 5 12 5 14 0 19 -2 13 -5z m345 -18 c-8 -9 -170 -35 -208 -34
-49 1 -23 9 78 24 100 14 138 17 130 10z m492 -260 c0 -2 -9 -9 -20 -15 -22
-12 -44 -5 -35 11 6 9 55 13 55 4z m195 -15 c-3 -5 -13 -10 -21 -10 -8 0 -14
5 -14 10 0 6 9 10 21 10 11 0 17 -4 14 -10z m165 -27 c2 -2 -6 -6 -18 -10 -12
-3 -19 -9 -16 -14 8 -13 -10 -11 -23 2 -20 20 -4 40 26 33 14 -4 28 -9 31 -11z
m-723 -49 c-3 -3 -12 -4 -19 -1 -8 3 -5 6 6 6 11 1 17 -2 13 -5z m803 -45 c0
-6 -4 -7 -10 -4 -5 3 -10 11 -10 16 0 6 5 7 10 4 6 -3 10 -11 10 -16z m-1065
-66 c-27 -19 -38 -16 -17 5 9 11 21 17 26 14 5 -3 1 -11 -9 -19z m6462 5 c-3
-8 -6 -5 -6 6 -1 11 2 17 5 13 3 -3 4 -12 1 -19z m-6522 -27 c3 -5 2 -12 -3
-15 -5 -3 -9 1 -9 9 0 17 3 19 12 6z m955 -130 c0 -5 -7 -11 -15 -15 -9 -3
-15 0 -15 9 0 8 7 15 15 15 8 0 15 -4 15 -9z m-340 -41 c0 -5 -7 -10 -15 -10
-8 0 -15 5 -15 10 0 6 7 10 15 10 8 0 15 -4 15 -10z m79 8 c-2 -2 -16 -14 -32
-27 l-27 -25 2 27 c2 23 7 27 32 27 16 0 27 -1 25 -2z m-39 -82 c0 -11 -19
-15 -25 -6 -3 5 1 10 9 10 9 0 16 -2 16 -4z m20 -41 c-14 -8 -21 -14 -17 -15
5 0 5 -5 1 -11 -4 -8 -9 -7 -15 2 -8 13 22 38 46 38 6 0 -1 -6 -15 -14z m927
3 c7 18 33 14 33 -5 0 -36 37 -79 79 -93 22 -7 41 -17 41 -21 0 -5 -12 -4 -26
1 -32 13 -27 13 -55 -11 -15 -13 -31 -18 -44 -14 -11 4 -49 9 -85 12 -36 2
-66 6 -68 8 -2 2 10 10 26 19 33 17 72 72 72 102 0 16 2 17 11 4 8 -11 12 -12
16 -2z m-1692 -12 c18 -13 18 -14 -8 -9 -15 3 -27 9 -27 14 0 13 13 11 35 -5z
m441 -48 c-9 -5 -31 -8 -49 -6 -31 4 -32 4 -8 14 13 6 35 8 49 6 21 -4 22 -6
8 -14z m-424 -30 c-9 -9 -12 -7 -12 12 0 19 3 21 12 12 9 -9 9 -15 0 -24z
m155 26 c-3 -3 -12 -4 -19 -1 -8 3 -5 6 6 6 11 1 17 -2 13 -5z m1697 -78 c-6
-15 -34 -31 -34 -19 0 5 30 32 37 33 1 0 0 -6 -3 -14z m-1110 -21 c-4 -8 -10
-15 -15 -15 -5 0 -9 7 -9 15 0 8 7 15 15 15 9 0 12 -6 9 -15z m1011 -15 c-3
-5 -13 -10 -21 -10 -8 0 -12 5 -9 10 3 6 13 10 21 10 8 0 12 -4 9 -10z m3 -45
c-9 -10 -204 -35 -258 -34 -54 2 -54 2 20 11 41 4 104 12 140 17 85 11 104 12
98 6z m-1011 -45 c-1 -11 -4 -20 -8 -20 -10 0 -19 27 -12 34 12 12 22 5 20
-14z m118 0 c-3 -5 -11 -10 -16 -10 -6 0 -7 5 -4 10 3 6 11 10 16 10 6 0 7 -4
4 -10z m-645 -30 c0 -5 -7 -10 -16 -10 -8 0 -12 5 -9 10 3 6 10 10 16 10 5 0
9 -4 9 -10z m100 -14 c0 -8 10 -17 23 -19 20 -4 19 -4 -4 -6 -19 -1 -28 5 -32
19 -3 11 -1 20 4 20 5 0 9 -6 9 -14z m80 -6 c-8 -5 -19 -10 -25 -10 -5 0 -3 5
5 10 8 5 20 10 25 10 6 0 3 -5 -5 -10z"/>
<path d="M2568 6233 c7 -3 16 -2 19 1 4 3 -2 6 -13 5 -11 0 -14 -3 -6 -6z"/>
<path d="M2706 6225 c-3 -8 -1 -15 4 -15 6 0 10 7 10 15 0 8 -2 15 -4 15 -2 0
-6 -7 -10 -15z"/>
<path d="M2227 6139 c-6 -23 3 -30 31 -23 24 7 19 30 -8 37 -12 3 -20 -2 -23
-14z"/>
<path d="M1515 6010 c-4 -6 11 -7 42 -3 63 8 67 13 10 13 -25 0 -49 -4 -52
-10z"/>
<path d="M1223 6003 c9 -2 25 -2 35 0 9 3 1 5 -18 5 -19 0 -27 -2 -17 -5z"/>
<path d="M1596 5971 c-3 -5 3 -11 14 -14 24 -6 60 2 60 14 0 12 -67 12 -74 0z"/>
<path d="M2237 5903 c-4 -3 -7 -11 -7 -17 0 -6 5 -5 12 2 6 6 9 14 7 17 -3 3
-9 2 -12 -2z"/>
<path d="M2270 5866 c0 -8 31 -36 41 -36 5 0 9 5 9 10 0 6 -7 10 -15 10 -8 0
-15 5 -15 10 0 6 -4 10 -10 10 -5 0 -10 -2 -10 -4z"/>
<path d="M1869 5846 c-3 -3 -35 -7 -73 -10 -80 -6 -101 -16 -30 -15 58 0 187
27 138 28 -17 1 -33 -1 -35 -3z"/>
<path d="M2220 5819 c-13 -9 -12 -10 3 -5 22 7 36 -22 16 -35 -12 -8 -12 -10
1 -19 12 -7 16 -4 18 16 2 17 8 24 18 20 8 -3 14 1 14 9 0 8 -6 15 -14 15 -8
0 -20 2 -28 5 -7 3 -20 0 -28 -6z"/>
<path d="M2207 5763 c-3 -5 1 -16 8 -26 7 -10 15 -15 18 -10 3 5 -1 16 -8 26
-7 10 -15 15 -18 10z"/>
<path d="M2155 5690 c-19 -8 -19 -9 3 -9 12 -1 22 4 22 9 0 6 -1 10 -2 9 -2 0
-12 -4 -23 -9z"/>
<path d="M1700 5510 c-8 -9 -16 -23 -18 -31 -5 -20 -23 -39 -36 -38 -30 4 -37
-2 -31 -23 5 -18 4 -20 -4 -8 -7 10 -11 11 -11 3 0 -7 -10 -13 -22 -13 -21 0
-21 -1 -5 -17 14 -15 21 -16 37 -5 17 10 20 10 20 -3 0 -8 3 -15 8 -15 4 0 20
-11 36 -25 31 -26 46 -31 46 -15 0 6 6 10 14 10 8 0 18 5 22 12 5 8 2 9 -9 5
-10 -3 -17 -2 -17 3 0 21 -2 25 -15 40 -28 31 -35 66 -17 91 9 13 20 27 25 30
5 4 5 9 1 11 -5 3 -16 -3 -24 -12z"/>
<path d="M1735 5490 c3 -5 11 -10 16 -10 6 0 7 5 4 10 -3 6 -11 10 -16 10 -6
0 -7 -4 -4 -10z"/>
<path d="M1760 5460 c0 -5 5 -10 11 -10 5 0 7 5 4 10 -3 6 -8 10 -11 10 -2 0
-4 -4 -4 -10z"/>
<path d="M1386 5213 c-12 -12 -5 -22 14 -20 11 1 20 4 20 8 0 10 -27 19 -34
12z"/>
<path d="M1315 5170 c3 -5 8 -10 11 -10 2 0 4 5 4 10 0 6 -5 10 -11 10 -5 0
-7 -4 -4 -10z"/>
<path d="M1370 5166 c0 -8 -6 -16 -12 -19 -7 -2 2 -4 19 -3 38 1 41 6 13 24
-16 10 -20 10 -20 -2z"/>
<path d="M1295 5120 c3 -5 8 -10 11 -10 2 0 4 5 4 10 0 6 -5 10 -11 10 -5 0
-7 -4 -4 -10z"/>
<path d="M1360 5101 c0 -5 7 -15 17 -22 15 -13 15 -12 4 9 -12 23 -21 28 -21
13z"/>
<path d="M1626 5064 c-8 -20 0 -32 14 -18 5 5 5 15 1 22 -6 11 -10 10 -15 -4z"/>
<path d="M1725 4980 c3 -5 10 -10 16 -10 5 0 9 5 9 10 0 6 -7 10 -16 10 -8 0
-12 -4 -9 -10z"/>
<path d="M1889 4153 c-13 -16 -22 -34 -21 -40 2 -7 -2 -13 -7 -13 -19 0 -57
-45 -53 -62 4 -20 32 -25 32 -7 0 7 18 43 39 80 22 38 39 69 37 69 -1 0 -13
-12 -27 -27z"/>
<path d="M1380 4149 c0 -5 5 -7 10 -4 6 3 10 8 10 11 0 2 -4 4 -10 4 -5 0 -10
-5 -10 -11z"/>
<path d="M1770 4004 c-14 -13 -35 -34 -47 -46 -27 -25 -28 -28 -8 -54 15 -18
15 -18 9 9 -5 23 -3 27 17 27 18 0 20 3 10 9 -11 7 -7 13 18 25 19 10 31 24
31 36 0 24 1 24 -30 -6z"/>
<path d="M1682 3950 c-7 -11 -8 -20 -2 -20 5 0 14 9 20 20 6 11 7 20 3 20 -5
0 -14 -9 -21 -20z"/>
<path d="M1752 3840 c0 -14 2 -19 5 -12 2 6 2 18 0 25 -3 6 -5 1 -5 -13z"/>
<path d="M1571 3834 c0 -11 3 -14 6 -6 3 7 2 16 -1 19 -3 4 -6 -2 -5 -13z"/>
<path d="M1731 3784 c0 -11 3 -14 6 -6 3 7 2 16 -1 19 -3 4 -6 -2 -5 -13z"/>
<path d="M1700 3750 c-13 -8 -12 -10 3 -10 9 0 17 5 17 10 0 12 -1 12 -20 0z"/>
<path d="M2572 5827 c2 -22 5 -24 21 -15 10 5 17 11 15 12 -1 1 -11 8 -20 15
-16 12 -18 11 -16 -12z"/>
<path d="M2520 5820 c0 -5 5 -10 10 -10 6 0 10 5 10 10 0 6 -4 10 -10 10 -5 0
-10 -4 -10 -10z"/>
<path d="M2530 5770 c0 -5 5 -10 11 -10 5 0 7 5 4 10 -3 6 -8 10 -11 10 -2 0
-4 -4 -4 -10z"/>
<path d="M2570 5738 c0 -16 3 -18 13 -9 8 6 17 8 20 4 4 -3 7 -2 7 4 0 6 -9
13 -20 16 -15 4 -20 0 -20 -15z"/>
<path d="M2565 5668 c6 -14 45 -20 45 -6 0 4 -4 8 -9 8 -5 0 -17 3 -25 6 -11
4 -15 2 -11 -8z"/>
<path d="M2560 5630 c0 -5 5 -10 11 -10 5 0 7 5 4 10 -3 6 -8 10 -11 10 -2 0
-4 -4 -4 -10z"/>
<path d="M2596 5625 c4 -8 8 -15 10 -15 2 0 4 7 4 15 0 8 -4 15 -10 15 -5 0
-7 -7 -4 -15z"/>
<path d="M2563 5592 c1 -14 5 -18 11 -12 7 7 6 14 -1 21 -9 9 -12 7 -10 -9z"/>
<path d="M2595 5590 c-3 -5 -1 -10 4 -10 6 0 11 5 11 10 0 6 -2 10 -4 10 -3 0
-8 -4 -11 -10z"/>
<path d="M2563 5512 c1 -14 5 -18 11 -12 7 7 6 14 -1 21 -9 9 -12 7 -10 -9z"/>
<path d="M2560 5440 c0 -5 5 -10 11 -10 5 0 7 5 4 10 -3 6 -8 10 -11 10 -2 0
-4 -4 -4 -10z"/>
<path d="M2545 5382 c4 -66 14 -97 16 -46 0 25 2 26 9 9 8 -19 9 -19 9 3 1 12
-4 22 -10 22 -5 0 -8 3 -6 8 2 4 -2 21 -9 37 -12 28 -13 26 -9 -33z"/>
<path d="M2540 5219 c0 -11 4 -18 10 -14 5 3 7 12 3 20 -7 21 -13 19 -13 -6z"/>
<path d="M2560 5230 c0 -5 5 -10 10 -10 6 0 10 5 10 10 0 6 -4 10 -10 10 -5 0
-10 -4 -10 -10z"/>
<path d="M2543 5161 c0 -36 7 -39 25 -10 8 12 9 18 3 15 -5 -4 -14 1 -19 10
-7 12 -9 8 -9 -15z"/>
<path d="M2545 5109 c-4 -6 -5 -13 -2 -16 7 -7 27 6 27 18 0 12 -17 12 -25 -2z"/>
<path d="M2602 5040 c-7 -11 -8 -20 -3 -20 9 0 24 30 18 36 -1 2 -8 -6 -15
-16z"/>
<path d="M2535 5030 c-3 -5 1 -10 9 -10 8 0 18 5 21 10 3 6 -1 10 -9 10 -8 0
-18 -4 -21 -10z"/>
<path d="M2622 4995 c-1 -55 9 -77 28 -64 13 8 13 11 -3 20 -9 6 -15 14 -13
18 3 4 1 21 -4 37 -8 28 -8 27 -8 -11z"/>
<path d="M2576 4965 c-3 -8 -1 -15 4 -15 13 0 22 18 11 24 -5 3 -11 -1 -15 -9z"/>
<path d="M2540 4954 c0 -8 5 -12 10 -9 6 4 8 11 5 16 -9 14 -15 11 -15 -7z"/>
<path d="M2590 4890 c0 -16 3 -30 8 -30 4 0 7 14 7 30 0 17 -3 30 -7 30 -5 0
-8 -13 -8 -30z"/>
<path d="M2637 4913 c-4 -3 -2 -12 4 -20 9 -9 8 -13 0 -13 -6 0 -11 -7 -11
-15 0 -8 9 -15 21 -15 14 0 18 4 12 13 -4 6 -6 22 -4 35 2 21 -9 29 -22 15z"/>
<path d="M2540 4875 c0 -8 4 -15 9 -15 5 0 11 7 15 15 3 9 0 15 -9 15 -8 0
-15 -7 -15 -15z"/>
<path d="M2540 4840 c0 -5 5 -10 10 -10 6 0 10 5 10 10 0 6 -4 10 -10 10 -5 0
-10 -4 -10 -10z"/>
<path d="M2588 4825 c4 -25 13 -31 25 -19 8 8 -10 44 -22 44 -5 0 -6 -11 -3
-25z"/>
<path d="M2540 4806 c0 -9 7 -16 16 -16 9 0 14 5 12 12 -6 18 -28 21 -28 4z"/>
<path d="M2634 4785 c6 -16 5 -18 -5 -7 -7 6 -21 12 -32 12 -11 0 -17 -5 -14
-12 8 -23 -13 -49 -34 -43 -13 4 -19 2 -19 -9 0 -19 5 -20 32 -5 19 10 20 9
15 -10 -4 -15 -1 -21 12 -21 26 0 32 11 15 27 -19 19 -4 39 37 48 16 4 29 11
29 17 0 6 -3 8 -7 5 -3 -4 -13 -1 -21 6 -13 10 -15 9 -8 -8z"/>
<path d="M2540 4764 c0 -9 5 -14 12 -12 18 6 21 28 4 28 -9 0 -16 -7 -16 -16z"/>
<path d="M2620 4741 c0 -5 5 -13 10 -16 6 -3 10 -2 10 4 0 5 -4 13 -10 16 -5
3 -10 2 -10 -4z"/>
<path d="M2530 4690 c0 -5 7 -10 15 -10 8 0 15 5 15 10 0 6 -7 10 -15 10 -8 0
-15 -4 -15 -10z"/>
<path d="M2635 4691 c-9 -16 9 -20 23 -5 10 12 10 14 -2 14 -8 0 -17 -4 -21
-9z"/>
<path d="M2538 4662 c-10 -2 -18 -8 -18 -13 0 -11 11 -11 30 1 18 11 11 18
-12 12z"/>
<path d="M2570 4663 c0 -5 4 -14 9 -22 8 -12 12 -12 25 2 22 22 20 27 -9 27
-14 0 -25 -3 -25 -7z"/>
<path d="M2650 4650 c0 -5 5 -10 10 -10 6 0 10 5 10 10 0 6 -4 10 -10 10 -5 0
-10 -4 -10 -10z"/>
<path d="M2615 4631 c-3 -5 -1 -12 4 -15 5 -3 11 1 15 9 6 16 -9 21 -19 6z"/>
<path d="M2520 4610 c0 -5 5 -10 10 -10 6 0 10 5 10 10 0 6 -4 10 -10 10 -5 0
-10 -4 -10 -10z"/>
<path d="M2568 4595 c4 -25 26 -34 37 -15 7 11 -17 40 -33 40 -5 0 -7 -11 -4
-25z"/>
<path d="M2650 4613 c0 -5 5 -15 10 -23 8 -12 10 -11 10 8 0 12 -4 22 -10 22
-5 0 -10 -3 -10 -7z"/>
<path d="M2574 4552 c-7 -4 -8 -15 -3 -27 4 -11 8 -14 8 -7 1 6 8 12 17 12 9
0 14 5 12 12 -5 15 -20 20 -34 10z"/>
<path d="M2516 4535 c4 -8 10 -12 15 -9 14 8 10 24 -6 24 -9 0 -12 -6 -9 -15z"/>
<path d="M2605 4519 c-4 -6 -5 -13 -2 -16 7 -7 27 6 27 18 0 12 -17 12 -25 -2z"/>
<path d="M2560 4475 c0 -21 3 -23 22 -16 12 4 24 14 26 21 3 9 -1 11 -12 7 -9
-4 -16 -2 -16 3 0 6 -4 10 -10 10 -5 0 -10 -11 -10 -25z"/>
<path d="M2620 4460 c0 -5 5 -10 10 -10 6 0 10 5 10 10 0 6 -4 10 -10 10 -5 0
-10 -4 -10 -10z"/>
<path d="M2761 5311 c-1 -18 2 -21 12 -12 8 6 17 8 20 4 4 -3 7 -1 7 6 0 7 -6
11 -14 8 -8 -3 -17 -1 -20 6 -2 7 -5 1 -5 -12z"/>
<path d="M2695 5240 c3 -5 8 -10 11 -10 2 0 4 5 4 10 0 6 -5 10 -11 10 -5 0
-7 -4 -4 -10z"/>
<path d="M2775 5240 c3 -5 8 -10 11 -10 2 0 4 5 4 10 0 6 -5 10 -11 10 -5 0
-7 -4 -4 -10z"/>
<path d="M2735 5220 c3 -5 8 -10 11 -10 2 0 4 5 4 10 0 6 -5 10 -11 10 -5 0
-7 -4 -4 -10z"/>
<path d="M2740 5150 c0 -5 5 -10 11 -10 5 0 7 5 4 10 -3 6 -8 10 -11 10 -2 0
-4 -4 -4 -10z"/>
<path d="M1167 5203 c-13 -12 -7 -44 8 -50 20 -7 55 24 48 43 -5 14 -44 19
-56 7z"/>
<path d="M1260 3776 c0 -2 7 -9 15 -16 13 -11 14 -10 9 4 -5 14 -24 23 -24 12z"/>
<path d="M1295 3728 c9 -22 85 -85 120 -98 44 -17 100 -12 129 11 32 25 28 37
-6 16 -66 -43 -128 -29 -206 47 -24 22 -40 33 -37 24z"/>
<path d="M1490 3459 c0 -9 20 -14 82 -23 33 -4 48 5 48 30 0 3 -29 4 -65 3
-36 -1 -65 -6 -65 -10z"/>
<path d="M5441 7404 c0 -11 3 -14 6 -6 3 7 2 16 -1 19 -3 4 -6 -2 -5 -13z"/>
<path d="M5505 7333 c-3 -27 -8 -57 -10 -69 -6 -28 5 -38 20 -17 11 15 15 12
34 -25 l22 -43 -27 -49 c-15 -28 -31 -50 -35 -50 -4 0 -17 17 -30 38 l-23 37
-7 -45 c-3 -25 -5 -55 -3 -67 2 -12 0 -33 -6 -47 -5 -15 -6 -35 -1 -48 9 -23
9 -22 21 7 l13 30 13 -60 c7 -33 13 -91 14 -129 0 -56 3 -67 15 -62 12 4 15
-3 14 -37 l-1 -42 -9 34 c-17 57 -22 26 -8 -51 7 -40 13 -81 14 -90 3 -27 12
-32 23 -11 5 11 7 79 3 168 -6 127 -5 152 8 161 13 10 18 6 29 -25 21 -55 33
-190 20 -227 -12 -34 -5 -69 12 -59 5 3 10 15 10 25 0 10 7 25 15 34 12 11 15
42 15 144 0 106 -3 131 -15 136 -11 4 -15 23 -16 73 -1 56 -2 63 -10 38 -4
-16 -6 -41 -3 -55 4 -18 3 -21 -4 -11 -8 11 -11 9 -17 -8 -9 -30 -23 -26 -18
7 l3 27 -14 -30 c-8 -16 -17 -38 -20 -48 -7 -21 -26 -14 -26 9 0 9 -7 22 -15
30 -10 11 -15 35 -14 77 0 49 2 57 10 39 8 -21 11 -22 23 -9 8 8 12 23 10 34
-6 21 51 88 66 78 5 -3 11 3 13 12 3 10 5 -12 6 -49 1 -95 15 -85 19 13 2 56
0 79 -7 74 -6 -3 -11 -1 -11 5 0 8 -9 10 -25 6 -20 -5 -27 -1 -41 26 -9 18
-22 36 -28 40 -6 4 -9 30 -8 57 3 64 -5 66 -13 4z"/>
<path d="M5370 7353 c0 -5 5 -15 10 -23 8 -12 10 -11 10 8 0 12 -4 22 -10 22
-5 0 -10 -3 -10 -7z"/>
<path d="M5441 7334 c0 -11 3 -14 6 -6 3 7 2 16 -1 19 -3 4 -6 -2 -5 -13z"/>
<path d="M5731 7324 c0 -11 3 -14 6 -6 3 7 2 16 -1 19 -3 4 -6 -2 -5 -13z"/>
<path d="M5431 7284 c0 -11 3 -14 6 -6 3 7 2 16 -1 19 -3 4 -6 -2 -5 -13z"/>
<path d="M5410 7216 c0 -8 5 -18 10 -21 6 -3 10 1 10 9 0 8 -4 18 -10 21 -5 3
-10 -1 -10 -9z"/>
<path d="M5550 7091 c-7 -15 -7 -21 0 -21 12 0 25 28 17 36 -3 3 -10 -4 -17
-15z"/>
<path d="M5540 6990 c0 -11 2 -20 4 -20 2 0 6 9 9 20 3 11 1 20 -4 20 -5 0 -9
-9 -9 -20z"/>
<path d="M5591 6984 c0 -11 3 -14 6 -6 3 7 2 16 -1 19 -3 4 -6 -2 -5 -13z"/>
<path d="M5778 6875 c-11 -32 -18 -406 -9 -450 8 -34 9 -27 11 50 2 65 5 82
10 60 5 -19 8 10 8 80 0 140 -11 287 -20 260z"/>
<path d="M5337 6795 c3 -33 7 -62 9 -64 9 -10 3 95 -6 109 -6 9 -7 -6 -3 -45z"/>
<path d="M5353 6675 c0 -27 2 -38 4 -22 2 15 2 37 0 50 -2 12 -4 0 -4 -28z"/>
<path d="M5469 6680 c-5 -73 -4 -79 33 -220 46 -172 56 -267 34 -311 -14 -29
-15 -35 -2 -48 13 -12 15 -11 20 10 3 13 7 62 10 108 3 69 0 96 -19 158 -13
41 -23 87 -21 101 2 15 1 20 -2 12 -3 -8 -15 41 -28 110 -18 103 -22 117 -25
80z"/>
<path d="M5651 6594 c0 -11 3 -14 6 -6 3 7 2 16 -1 19 -3 4 -6 -2 -5 -13z"/>
<path d="M4218 6593 c7 -3 16 -2 19 1 4 3 -2 6 -13 5 -11 0 -14 -3 -6 -6z"/>
<path d="M4250 6561 c0 -4 11 -6 25 -3 14 2 25 6 25 8 0 2 -11 4 -25 4 -14 0
-25 -4 -25 -9z"/>
<path d="M5358 6541 c-2 -16 -1 -37 3 -47 5 -13 8 -3 8 29 1 53 -5 62 -11 18z"/>
<path d="M4320 6528 c0 -4 16 -8 35 -8 19 0 35 2 35 4 0 2 -16 6 -35 8 -19 2
-35 0 -35 -4z"/>
<path d="M4405 6520 c-3 -5 -1 -10 4 -10 6 0 11 5 11 10 0 6 -2 10 -4 10 -3 0
-8 -4 -11 -10z"/>
<path d="M4510 6490 c8 -5 20 -10 25 -10 6 0 3 5 -5 10 -8 5 -19 10 -25 10 -5
0 -3 -5 5 -10z"/>
<path d="M4408 6443 c7 -3 16 -2 19 1 4 3 -2 6 -13 5 -11 0 -14 -3 -6 -6z"/>
<path d="M5437 6307 c4 -230 -20 -406 -53 -393 -10 4 -13 -1 -10 -17 3 -12 5
-28 5 -34 2 -22 20 -14 27 11 3 13 14 26 24 29 15 4 18 20 22 121 3 71 9 121
16 128 17 17 14 67 -11 190 l-22 107 2 -142z"/>
<path d="M5360 6387 c-17 -13 -40 -81 -40 -116 0 -22 18 -29 24 -8 11 43 34
137 32 137 0 0 -8 -6 -16 -13z"/>
<path d="M5400 6345 c0 -51 -24 -175 -47 -247 -10 -32 -12 -52 -5 -64 9 -15
10 -15 17 6 4 13 14 31 22 39 10 9 13 27 10 50 -2 20 2 77 9 126 17 108 17
135 4 135 -5 0 -10 -20 -10 -45z"/>
<path d="M5781 6364 c0 -11 3 -14 6 -6 3 7 2 16 -1 19 -3 4 -6 -2 -5 -13z"/>
<path d="M197 6303 l-197 -3 0 -26 c0 -25 2 -25 47 -20 78 9 99 13 111 20 6 3
77 9 159 12 158 7 278 23 148 21 -38 -1 -159 -3 -268 -4z"/>
<path d="M5782 6290 c0 -14 2 -19 5 -12 2 6 2 18 0 25 -3 6 -5 1 -5 -13z"/>
<path d="M5853 5765 c0 -22 2 -30 4 -17 2 12 2 30 0 40 -3 9 -5 -1 -4 -23z"/>
<path d="M3325 5629 c-16 -6 -47 -10 -67 -10 -20 1 -40 -4 -44 -10 -4 -8 1 -9
16 -4 20 6 21 5 11 -14 -15 -28 12 -55 59 -59 43 -4 80 -39 83 -77 2 -25 -3
-31 -32 -41 -19 -6 -39 -17 -45 -25 -7 -9 -38 -15 -96 -17 -93 -4 -102 -6 -94
-26 3 -9 31 -15 81 -19 104 -8 128 -33 44 -44 -48 -7 -51 -14 -15 -38 18 -12
48 -17 102 -17 97 -1 165 24 190 69 9 17 26 46 36 65 12 21 19 51 18 83 0 28
-1 66 -1 86 -1 63 -31 79 -191 104 -14 2 -38 -1 -55 -6z"/>
<path d="M3910 5618 c-25 -5 -57 -10 -73 -10 -20 -1 -38 -14 -68 -49 -23 -28
-46 -46 -53 -43 -8 3 -17 0 -21 -5 -3 -6 -10 -9 -15 -6 -16 10 -47 -13 -54
-40 -4 -14 -12 -25 -19 -25 -6 0 4 -9 23 -21 78 -47 100 -65 100 -84 0 -11 5
-36 10 -55 l10 -35 62 0 c38 -1 92 -10 135 -24 59 -19 84 -22 135 -17 35 4 71
7 80 7 10 0 20 5 23 10 4 5 10 7 15 4 4 -2 13 9 20 25 7 17 18 30 24 30 7 0
22 9 34 20 12 11 26 20 32 20 5 0 10 5 10 10 0 18 -32 74 -46 83 -8 4 -14 15
-14 22 0 8 -4 15 -10 15 -15 0 -12 20 7 38 16 16 16 17 0 20 -9 2 -17 7 -17
11 0 5 11 6 25 3 30 -5 32 8 5 33 -11 10 -20 24 -20 32 0 8 -4 11 -10 8 -5 -3
-26 3 -47 13 -30 16 -59 20 -138 20 -55 -1 -120 -5 -145 -10z"/>
<path d="M5852 5623 c-1 -7 -9 -10 -17 -7 -11 5 -15 -1 -15 -17 0 -19 2 -21
10 -9 7 11 10 6 10 -20 1 -29 2 -32 11 -17 6 9 8 32 6 50 -2 17 -5 27 -5 20z"/>
<path d="M5554 5336 c-10 -8 -15 -18 -11 -22 4 -4 17 2 30 14 24 25 12 30 -19
8z"/>
<path d="M3840 5080 c0 -5 5 -10 11 -10 5 0 7 5 4 10 -3 6 -8 10 -11 10 -2 0
-4 -4 -4 -10z"/>
<path d="M4250 4961 c0 -10 6 -24 14 -30 11 -9 15 -7 19 11 7 26 1 38 -19 38
-8 0 -14 -8 -14 -19z"/>
<path d="M4458 4907 c-6 -31 8 -45 25 -28 9 9 9 14 1 19 -6 4 -13 14 -16 22
-3 9 -7 4 -10 -13z"/>
<path d="M746 4015 c-14 -14 -15 -20 -4 -26 8 -5 16 -2 21 7 14 25 3 38 -17
19z"/>
<path d="M787 3993 c-14 -13 -6 -23 17 -23 13 0 29 7 36 15 11 13 8 15 -17 15
-16 0 -33 -3 -36 -7z"/>
<path d="M847 3962 c-24 -26 -21 -34 14 -54 40 -23 67 -24 49 -3 -7 8 -9 15
-5 15 4 0 2 7 -5 15 -11 13 -6 15 34 15 34 0 46 4 46 15 0 24 -112 21 -133 -3z"/>
<path d="M428 3863 c-28 -26 -38 -31 -30 -16 24 44 11 45 -32 2 -27 -26 -41
-46 -34 -50 17 -11 69 8 97 35 14 14 38 28 54 31 15 4 27 12 27 17 0 6 -7 7
-16 4 -8 -3 -12 -2 -9 4 14 23 -18 7 -57 -27z"/>
<path d="M566 3881 c-10 -11 -27 -21 -39 -23 -19 -3 -33 -33 -19 -42 13 -7 54
14 50 26 -3 7 4 17 15 23 22 11 35 35 19 35 -5 0 -17 -9 -26 -19z"/>
<path d="M631 3876 c-18 -22 26 -33 47 -12 9 9 11 16 5 16 -6 0 -18 2 -26 5
-7 3 -19 -1 -26 -9z"/>
<path d="M625 3812 c-14 -10 -19 -46 -6 -37 6 3 11 14 11 23 0 15 2 15 10 2 8
-13 10 -12 10 3 0 18 -9 21 -25 9z"/>
<path d="M430 3785 l-23 -25 51 0 c52 0 72 17 32 27 -11 3 -20 9 -20 14 0 16
-16 10 -40 -16z"/>
<path d="M135 3765 l-50 -13 93 -1 c55 -1 92 3 92 9 0 6 -13 10 -29 10 -16 0
-35 2 -43 4 -7 2 -35 -2 -63 -9z"/>
<path d="M15 3760 c-15 -7 -10 -9 23 -9 26 -1 41 3 37 9 -7 12 -32 12 -60 0z"/>
<path d="M378 3763 c7 -3 16 -2 19 1 4 3 -2 6 -13 5 -11 0 -14 -3 -6 -6z"/>
<path d="M750 3641 c0 -18 17 -20 36 -6 18 14 18 14 -8 15 -16 0 -28 -4 -28
-9z"/>
<path d="M638 3613 c12 -2 32 -2 45 0 12 2 2 4 -23 4 -25 0 -35 -2 -22 -4z"/>
<path d="M655 3376 c-18 -13 -18 -14 3 -25 23 -12 65 -15 75 -5 3 4 2 15 -4
25 -11 22 -47 25 -74 5z"/>
<path d="M6510 3320 c-11 -7 -7 -15 18 -38 18 -17 32 -35 32 -41 0 -6 5 -11
10 -11 13 0 13 16 -1 43 -21 38 -44 57 -59 47z"/>
<path d="M6386 3211 c-3 -5 5 -11 19 -13 30 -6 32 -2 6 12 -11 6 -22 6 -25 1z"/>
<path d="M7187 3094 c-4 -4 -32 -8 -63 -10 -31 -2 -66 -9 -78 -16 -11 -8 -47
-22 -79 -33 -55 -18 -103 -57 -92 -75 9 -15 100 -41 103 -30 5 14 22 12 22 -3
0 -12 86 -40 163 -53 l37 -6 0 116 c0 64 -1 116 -3 116 -2 0 -7 -3 -10 -6z
m-42 -100 c-63 -22 -105 -47 -105 -62 0 -7 -5 -10 -10 -7 -6 4 -8 10 -5 15 7
11 -24 22 -37 13 -6 -3 -8 -2 -5 4 4 6 21 13 39 17 18 3 56 12 83 20 65 19 92
19 40 0z"/>
<path d="M6988 3063 c7 -3 16 -2 19 1 4 3 -2 6 -13 5 -11 0 -14 -3 -6 -6z"/>
<path d="M700 1463 c-19 -8 -29 -17 -23 -20 16 -6 113 14 133 27 26 17 -71 11
-110 -7z"/>
<path d="M450 1463 c-51 -15 -100 -36 -100 -44 0 -19 66 -8 95 15 30 24 32 37
5 29z"/>
<path d="M591 1454 c-43 -18 -34 -28 18 -19 47 8 79 35 40 35 -13 -1 -39 -7
-58 -16z"/>
<path d="M835 1460 c-18 -8 -17 -9 7 -9 15 -1 30 4 33 9 7 12 -12 12 -40 0z"/>
<path d="M928 1463 c7 -3 16 -2 19 1 4 3 -2 6 -13 5 -11 0 -14 -3 -6 -6z"/>
<path d="M485 1442 c-28 -15 -28 -17 -8 -20 20 -3 83 22 83 33 0 11 -47 3 -75
-13z"/>
<path d="M970 1451 c0 -13 30 -22 53 -15 16 5 17 8 6 15 -18 11 -59 11 -59 0z"/>
<path d="M1003 1412 c-8 -5 -9 -18 -3 -42 4 -19 8 -27 9 -17 1 10 8 20 17 24
13 5 13 7 2 14 -11 7 -10 11 2 19 13 9 13 10 0 10 -8 0 -20 -4 -27 -8z"/>
<path d="M28 1383 c-20 -23 -35 -68 -19 -59 6 4 11 12 11 18 0 7 10 22 22 35
12 13 17 23 11 23 -5 0 -17 -8 -25 -17z"/>
<path d="M5980 900 c0 -5 5 -10 11 -10 5 0 7 5 4 10 -3 6 -8 10 -11 10 -2 0
-4 -4 -4 -10z"/>
<path d="M326 725 c4 -8 8 -15 10 -15 2 0 4 7 4 15 0 8 -4 15 -10 15 -5 0 -7
-7 -4 -15z"/>
<path d="M250 689 c-10 -18 -9 -19 7 -11 10 5 24 7 31 5 6 -3 12 2 12 11 0 23
-37 20 -50 -5z"/>
<path d="M191 644 c0 -11 3 -14 6 -6 3 7 2 16 -1 19 -3 4 -6 -2 -5 -13z"/>
<path d="M187 600 c-3 -13 0 -20 9 -20 15 0 19 26 5 34 -5 3 -11 -3 -14 -14z"/>
<path d="M118 562 c-14 -37 -14 -38 4 -37 28 2 42 28 20 37 -16 6 -16 7 1 7
20 1 24 31 4 31 -8 0 -21 -17 -29 -38z"/>
</g>
</svg>
